<mxfile modified="2022-07-13T14:41:22.778Z" host="app.diagrams.net" agent="5.0 (Windows NT 10.0; Win64; x64) AppleWebKit/537.36 (KHTML, like Gecko) Chrome/103.0.0.0 Safari/537.36" etag="yUTUB4xIcEFuG3mzCjla" version="20.1.1" type="github">
  <diagram id="WI9T0HZ2pTsCkuznbFz-" name="Page-1">
    <mxGraphModel dx="1360" dy="777" grid="1" gridSize="10" guides="1" tooltips="1" connect="1" arrows="1" fold="1" page="1" pageScale="1" pageWidth="1169" pageHeight="827" math="0" shadow="0">
      <root>
        <mxCell id="0" />
        <mxCell id="1" parent="0" />
        <mxCell id="p6jh_FOEO8K4yXYaCJv4-31" value="" style="whiteSpace=wrap;html=1;" vertex="1" parent="1">
          <mxGeometry x="15" y="20" width="1145" height="790" as="geometry" />
        </mxCell>
        <mxCell id="p6jh_FOEO8K4yXYaCJv4-27" value="" style="whiteSpace=wrap;html=1;fillColor=#CCE5FF;" vertex="1" parent="1">
          <mxGeometry x="160" y="30" width="750" height="290" as="geometry" />
        </mxCell>
        <mxCell id="p6jh_FOEO8K4yXYaCJv4-1" value="" style="shape=image;verticalLabelPosition=bottom;labelBackgroundColor=#ffffff;verticalAlign=top;aspect=fixed;imageAspect=0;image=data:image/svg+xml,PHN2ZyB4bWxuczpkYz0iaHR0cDovL3B1cmwub3JnL2RjL2VsZW1lbnRzLzEuMS8iIHhtbG5zOmNjPSJodHRwOi8vY3JlYXRpdmVjb21tb25zLm9yZy9ucyMiIHhtbG5zOnJkZj0iaHR0cDovL3d3dy53My5vcmcvMTk5OS8wMi8yMi1yZGYtc3ludGF4LW5zIyIgeG1sbnM6c3ZnPSJodHRwOi8vd3d3LnczLm9yZy8yMDAwL3N2ZyIgeG1sbnM9Imh0dHA6Ly93d3cudzMub3JnLzIwMDAvc3ZnIiB4bWxuczpzb2RpcG9kaT0iaHR0cDovL3NvZGlwb2RpLnNvdXJjZWZvcmdlLm5ldC9EVEQvc29kaXBvZGktMC5kdGQiIHhtbG5zOmlua3NjYXBlPSJodHRwOi8vd3d3Lmlua3NjYXBlLm9yZy9uYW1lc3BhY2VzL2lua3NjYXBlIiB2ZXJzaW9uPSIxLjEiIGlkPSJzdmc3OTg2MSIgaW5rc2NhcGU6dmVyc2lvbj0iMC45Mi4zICgyNDA1NTQ2LCAyMDE4LTAzLTExKSIgc29kaXBvZGk6ZG9jbmFtZT0iZG9jdW1lbnRkYi5zdmciIHg9IjBweCIgeT0iMHB4IiB2aWV3Qm94PSIwIDAgNzUuNTIgOTkuOSIgeG1sOnNwYWNlPSJwcmVzZXJ2ZSIgd2lkdGg9Ijc1LjUxOTk5NyIgaGVpZ2h0PSI5OS45MDAwMDIiPjxtZXRhZGF0YSBpZD0ibWV0YWRhdGExNTQ3Ij48cmRmOlJERj48Y2M6V29yayByZGY6YWJvdXQ9IiI+PGRjOmZvcm1hdD5pbWFnZS9zdmcreG1sPC9kYzpmb3JtYXQ+PGRjOnR5cGUgcmRmOnJlc291cmNlPSJodHRwOi8vcHVybC5vcmcvZGMvZGNtaXR5cGUvU3RpbGxJbWFnZSIvPjxkYzp0aXRsZS8+PC9jYzpXb3JrPjwvcmRmOlJERj48L21ldGFkYXRhPjxkZWZzIGlkPSJkZWZzMTU0NSI+JiN4YTsJJiN4YTsmI3hhOwkmI3hhOyYjeGE7CSYjeGE7JiN4YTsJJiN4YTsmI3hhOwkmI3hhOyYjeGE7CSYjeGE7CSYjeGE7CSYjeGE7JiN4YTsJJiN4YTsJJiN4YTsJJiN4YTsmI3hhOwkJJiN4YTsJJiN4YTsJCSYjeGE7CSYjeGE7CQkmI3hhOwkmI3hhOwkJJiN4YTsJJiN4YTsJCSYjeGE7CSYjeGE7CQkmI3hhOwkmI3hhOwkJJiN4YTsJJiN4YTsJCQkmI3hhOwkJJiN4YTsJCQkmI3hhOwkJPC9kZWZzPiYjeGE7PGZpbHRlciBpZD0iZmlsdGVyXzIiPiYjeGE7CTxmZUdhdXNzaWFuQmx1ciBpZD0iZmVHYXVzc2lhbkJsdXI3OTc5MSIgc3RkRGV2aWF0aW9uPSIyIi8+JiN4YTs8L2ZpbHRlcj4mI3hhOzxzb2RpcG9kaTpuYW1lZHZpZXcgYm9yZGVyY29sb3I9IiM2NjY2NjYiIGJvcmRlcm9wYWNpdHk9IjEiIGZpdC1tYXJnaW4tYm90dG9tPSIwIiBmaXQtbWFyZ2luLWxlZnQ9IjAiIGZpdC1tYXJnaW4tcmlnaHQ9IjAiIGZpdC1tYXJnaW4tdG9wPSIwIiBncmlkdG9sZXJhbmNlPSIxMCIgZ3VpZGV0b2xlcmFuY2U9IjEwIiBpZD0ibmFtZWR2aWV3Nzk4NjMiIGlua3NjYXBlOmN1cnJlbnQtbGF5ZXI9InN2Zzc5ODYxIiBpbmtzY2FwZTpjeD0iLTgyLjQ4ODg2MyIgaW5rc2NhcGU6Y3k9IjUxLjY0ODExNyIgaW5rc2NhcGU6cGFnZW9wYWNpdHk9IjAiIGlua3NjYXBlOnBhZ2VzaGFkb3c9IjIiIGlua3NjYXBlOndpbmRvdy1oZWlnaHQ9IjEwMTciIGlua3NjYXBlOndpbmRvdy1tYXhpbWl6ZWQ9IjEiIGlua3NjYXBlOndpbmRvdy13aWR0aD0iMTkyMCIgaW5rc2NhcGU6d2luZG93LXg9Ii04IiBpbmtzY2FwZTp3aW5kb3cteT0iLTgiIGlua3NjYXBlOnpvb209IjMuNjk2NzkwNyIgb2JqZWN0dG9sZXJhbmNlPSIxMCIgcGFnZWNvbG9yPSIjZmZmZmZmIiBzaG93Z3JpZD0iZmFsc2UiPiYjeGE7CTwvc29kaXBvZGk6bmFtZWR2aWV3PiYjeGE7JiN4YTs8cGF0aCBpZD0icGF0aDc5ODA0IiBpbmtzY2FwZTpjb25uZWN0b3ItY3VydmF0dXJlPSIwIiBzdHlsZT0iZmlsbDojMzk5OWM2IiBkPSJNIDAsMTMuNTkgViA4Ni4xMSBDIDAsOTMuNyAxNi43OCw5OS43IDM3Ljc2LDk5LjcgViAxMy41OSBaIi8+JiN4YTsmI3hhOzxwYXRoIGlkPSJwYXRoNzk4MTIiIGlua3NjYXBlOmNvbm5lY3Rvci1jdXJ2YXR1cmU9IjAiIHN0eWxlPSJmaWxsOiM1OWI0ZDkiIGQ9Im0gMzcuMTYsOTkuOSBoIDAuNiBjIDIwLjc4LDAgMzcuNzYsLTYuMiAzNy43NiwtMTMuNTkgViAxMy41OCBIIDM3LjE2IFoiLz4mI3hhOyYjeGE7PHBhdGggaWQ9InBhdGg3OTgyMCIgaW5rc2NhcGU6Y29ubmVjdG9yLWN1cnZhdHVyZT0iMCIgc3R5bGU9ImZpbGw6I2ZmZmZmZiIgZD0ibSA3NS41MiwxMy41OCBjIDAsNy41OSAtMTYuNzgsMTMuNTkgLTM3Ljc2LDEzLjU5IEMgMTYuNzgsMjcuMTcgMCwyMS4xNyAwLDEzLjU4IDAsNi4xOSAxNi45OCwwIDM3Ljc2LDAgNTguNTQsMCA3NS41Miw2LjE5IDc1LjUyLDEzLjU4IFoiLz4mI3hhOyYjeGE7PHBhdGggaWQ9InBhdGg3OTgyOCIgaW5rc2NhcGU6Y29ubmVjdG9yLWN1cnZhdHVyZT0iMCIgc3R5bGU9ImZpbGw6IzdmYmEwMCIgZD0ibSA2Ny43MywxMi43OSBjIDAsNC45OSAtMTMuMzksOC45OSAtMjkuOTcsOC45OSAtMTYuNTgsMCAtMjkuOTcsLTQgLTI5Ljk3LC04Ljk5IDAsLTUgMTMuMzksLTguOTkgMjkuOTcsLTguOTkgMTYuNTgsMCAyOS45NywzLjk5IDI5Ljk3LDguOTkgeiIvPiYjeGE7JiN4YTs8cGF0aCBpZD0icGF0aDc5ODM2IiBpbmtzY2FwZTpjb25uZWN0b3ItY3VydmF0dXJlPSIwIiBzdHlsZT0iZmlsbDojYjhkNDMyIiBkPSJtIDYxLjUzLDE4LjM4IGMgNCwtMS42IDYuMiwtMy40IDYuMiwtNS42IDAsLTQuOTkgLTEzLjM5LC04Ljk5IC0yOS45NywtOC45OSAtMTYuNTgsMCAtMjkuOTcsNCAtMjkuOTcsOC45OSAwLDIgMi40LDQgNi4xOSw1LjYgNS40LC0yLjIgMTMuOTksLTMuNiAyMy43OCwtMy42IDkuNTksMCAxOC4xOCwxLjQgMjMuNzcsMy42IHoiLz4mI3hhOzxwYXRoIGQ9Im0gMjYuOTY4MjMsODMuNTExOSBjIC0yLjk5LDAgLTUuMzksLTAuNCAtNi45OSwtMSAtMS44LC0wLjYgLTMsLTEuNiAtMy43OSwtMi44IC0wLjgsLTEuNCAtMS4yLC0zLjQgLTEuMiwtNS45OSB2IC00LjQgYyAwLC0yLjggLTEuMiwtNC4zOSAtMy42LC00LjM5IHYgLTUuNCBjIDIuNCwwIDMuNiwtMS40IDMuNiwtNC4zOSB2IC00IGMgMCwtMi44IDAuNCwtNC45OSAxLjIsLTYuMTkgMC43OSwtMS40IDEuOTksLTIuMiAzLjU5LC0zIDEuOCwtMC42IDQsLTEgNi45OSwtMSB2IDUuNCBjIC0xLjM5LDAgLTIuMTksMC4yIC0yLjk5LDAuNzkgLTAuNiwwLjYgLTEsMS42IC0xLDMgdiAzLjQgYyAwLDIuMiAtMC4yLDMuOTkgLTAuOCw1LjM5IC0wLjYsMS40IC0xLjYsMi40IC0zLDMgMS40LDAuNiAyLjQsMS42IDMsMy4yIDAuNiwxLjM5IDEsMy4zOSAxLDUuNTkgdiAzIGMgMCwxLjQgMC4yLDIuMzkgMC44LDIuOTkgMC42LDAuNiAxLjYsMSAyLjk5LDEgdiA1LjggeiIgc3R5bGU9ImZpbGw6I2ZmZmZmZiIgaW5rc2NhcGU6Y29ubmVjdG9yLWN1cnZhdHVyZT0iMCIgaWQ9InBhdGg3OTg0NiIvPiYjeGE7PHBhdGggZD0ibSA2MC45MzMwMyw2NC45MzE5IGMgLTIuMzksMCAtMy41OSwxLjM5IC0zLjU5LDQuMzkgdiA0IGMgMCwyLjc5IC0wLjQsNC45OSAtMS4yLDYuMTkgLTAuOCwxLjQgLTIsMi4yIC0zLjYsMyAtMS44LDAuNiAtMy45OSwxIC02Ljk5LDEgdiAtNS40IGMgMS40LDAgMi40LC0wLjIgMywtMC44IDAuNiwtMC42IDEsLTEuNTkgMSwtMi45OSB2IC0zLjQgYyAwLC0yLjIgMC4yLC00IDAuOCwtNS4zOSAwLjU5LC0xLjQgMS41OSwtMi40IDIuOTksLTMgLTEuNCwtMC42IC0yLjQsLTEuOCAtMi45OSwtMy4yIC0wLjYsLTEuNCAtMSwtMy4zOSAtMSwtNS41OSB2IC0zIGMgMCwtMS40IC0wLjIsLTIuNCAtMC44LC0zIC0wLjYsLTAuNiAtMS42LC0xIC0zLC0xIHYgLTUuMzkgYyAzLDAgNS4zOSwwLjQgNi45OSwxIDEuOCwwLjYgMywxLjYgMy44LDIuOCAwLjgsMS40IDEuMiwzLjM5IDEuMiw1Ljk5IHYgNC40IGMgMCwyLjc5IDEuMiw0LjM5IDMuNTksNC4zOSB2IDUgeiIgc3R5bGU9ImZpbGw6I2ZmZmZmZiIgaW5rc2NhcGU6Y29ubmVjdG9yLWN1cnZhdHVyZT0iMCIgaWQ9InBhdGg3OTg1NCIvPiYjeGE7PC9zdmc+;" vertex="1" parent="1">
          <mxGeometry x="260" y="40" width="53.2" height="70" as="geometry" />
        </mxCell>
        <mxCell id="p6jh_FOEO8K4yXYaCJv4-3" value="" style="shape=image;verticalLabelPosition=bottom;labelBackgroundColor=#ffffff;verticalAlign=top;aspect=fixed;imageAspect=0;image=data:image/svg+xml,PHN2ZyB4bWxuczpjYz0iaHR0cDovL2NyZWF0aXZlY29tbW9ucy5vcmcvbnMjIiB4bWxuczpkYz0iaHR0cDovL3B1cmwub3JnL2RjL2VsZW1lbnRzLzEuMS8iIHhtbG5zOmlua3NjYXBlPSJodHRwOi8vd3d3Lmlua3NjYXBlLm9yZy9uYW1lc3BhY2VzL2lua3NjYXBlIiB4bWxuczpyZGY9Imh0dHA6Ly93d3cudzMub3JnLzE5OTkvMDIvMjItcmRmLXN5bnRheC1ucyMiIHhtbG5zOnNvZGlwb2RpPSJodHRwOi8vc29kaXBvZGkuc291cmNlZm9yZ2UubmV0L0RURC9zb2RpcG9kaS0wLmR0ZCIgeG1sbnM6c3ZnPSJodHRwOi8vd3d3LnczLm9yZy8yMDAwL3N2ZyIgeG1sbnM9Imh0dHA6Ly93d3cudzMub3JnLzIwMDAvc3ZnIiB4bWxuczp4bGluaz0iaHR0cDovL3d3dy53My5vcmcvMTk5OS94bGluayIgdmVyc2lvbj0iMS4xIiBpZD0ic3ZnNDkxMzUiIGlua3NjYXBlOnZlcnNpb249IjAuOTIuMyAoMjQwNTU0NiwgMjAxOC0wMy0xMSkiIHNvZGlwb2RpOmRvY25hbWU9Impzb24uc3ZnIiB4PSIwcHgiIHk9IjBweCIgdmlld0JveD0iMCAwIDI2LjcyIDM1LjE1IiBzdHlsZT0iZW5hYmxlLWJhY2tncm91bmQ6bmV3IDAgMCAyNi43MiAzNS4xNTsiIHhtbDpzcGFjZT0icHJlc2VydmUiPiYjeGE7PHNvZGlwb2RpOm5hbWVkdmlldyBib3JkZXJjb2xvcj0iIzY2NjY2NiIgYm9yZGVyb3BhY2l0eT0iMSIgZml0LW1hcmdpbi1ib3R0b209IjAiIGZpdC1tYXJnaW4tbGVmdD0iMCIgZml0LW1hcmdpbi1yaWdodD0iMCIgZml0LW1hcmdpbi10b3A9IjAiIGdyaWR0b2xlcmFuY2U9IjEwIiBndWlkZXRvbGVyYW5jZT0iMTAiIGlkPSJuYW1lZHZpZXc0OTEzNyIgaW5rc2NhcGU6Y3VycmVudC1sYXllcj0ic3ZnNDkxMzUiIGlua3NjYXBlOmN4PSIxNy44MTIxNTYiIGlua3NjYXBlOmN5PSIyMy40MzU4OTYiIGlua3NjYXBlOnBhZ2VvcGFjaXR5PSIwIiBpbmtzY2FwZTpwYWdlc2hhZG93PSIyIiBpbmtzY2FwZTp3aW5kb3ctaGVpZ2h0PSIxMDE3IiBpbmtzY2FwZTp3aW5kb3ctbWF4aW1pemVkPSIxIiBpbmtzY2FwZTp3aW5kb3ctd2lkdGg9IjE5MjAiIGlua3NjYXBlOndpbmRvdy14PSItOCIgaW5rc2NhcGU6d2luZG93LXk9Ii04IiBpbmtzY2FwZTp6b29tPSIxMS40MDYwODkiIG9iamVjdHRvbGVyYW5jZT0iMTAiIHBhZ2Vjb2xvcj0iI2ZmZmZmZiIgc2hvd2dyaWQ9ImZhbHNlIj4mI3hhOwk8L3NvZGlwb2RpOm5hbWVkdmlldz4mI3hhOzxnIGlkPSJnNDkxMzMiIHRyYW5zZm9ybT0idHJhbnNsYXRlKC0xMC45Mjg2LC0xMC45MzE0KSI+JiN4YTsJPHRpdGxlIGlkPSJ0aXRsZTQ5MDYxIj5QYWdlLTE8L3RpdGxlPiYjeGE7CTxnIGlkPSJncm91cDM5ODgtMSIgdHJhbnNmb3JtPSJ0cmFuc2xhdGUoMTAuOTI4NiwtMTAuOTI4NikiPiYjeGE7CQk8dGl0bGUgaWQ9InRpdGxlNDkwNjMiPkpTT04uMjY2PC90aXRsZT4mI3hhOwkJPGcgaWQ9Imdyb3VwMzk4OS0yIj4mI3hhOwkJCTx0aXRsZSBpZD0idGl0bGU0OTA2NSI+SlM8L3RpdGxlPiYjeGE7CQkJPGcgaWQ9Imdyb3VwMzk5MC0zIj4mI3hhOwkJCQk8dGl0bGUgaWQ9InRpdGxlNDkwNjciPlNoZWV0LjM5OTA8L3RpdGxlPiYjeGE7CQkJCTxnIGlkPSJzaGFwZTM5OTEtNCI+JiN4YTsJCQkJCTx0aXRsZSBpZD0idGl0bGU0OTA2OSI+U2hlZXQuMzk5MTwvdGl0bGU+JiN4YTsJCQkJCTxwYXRoIGlkPSJwYXRoNDkwNzEiIGlua3NjYXBlOmNvbm5lY3Rvci1jdXJ2YXR1cmU9IjAiIHN0eWxlPSJmaWxsOiNFOUU5RTA7IiBkPSJNMTguOTQsMjEuODZIMC45MWMtMC41LDAtMC45MSwwLjQxLTAuOTEsMS4yMSAgICAgICB2MzMuMzFjMCwwLjIyLDAuNDEsMC42MywwLjkxLDAuNjNoMjQuOWMwLjUsMCwwLjkxLTAuNDEsMC45MS0wLjYzVjMwYzAtMC40My0wLjA2LTAuNTctMC4xNi0wLjY4bC03LjIzLTcuMyAgICAgICBDMTkuMjMsMjEuOTIsMTkuMDksMjEuODYsMTguOTQsMjEuODZ6Ii8+JiN4YTsJCQkJPC9nPiYjeGE7CQkJCTxnIGlkPSJzaGFwZTM5OTItNiIgdHJhbnNmb3JtPSJ0cmFuc2xhdGUoMTkuMjYyLC0yNy42MTkzKSI+JiN4YTsJCQkJCTx0aXRsZSBpZD0idGl0bGU0OTA3NCI+U2hlZXQuMzk5MjwvdGl0bGU+JiN4YTsJCQkJCTxwYXRoIGlkPSJwYXRoNDkwNzYiIGlua3NjYXBlOmNvbm5lY3Rvci1jdXJ2YXR1cmU9IjAiIHN0eWxlPSJmaWxsOiNEOUQ3Q0E7IiBkPSJNMCw0OS41N3Y3LjQ0aDcuMzZMMCw0OS41N3oiLz4mI3hhOwkJCQk8L2c+JiN4YTsJCQkJPGcgaWQ9InNoYXBlMzk5My04Ij4mI3hhOwkJCQkJPHRpdGxlIGlkPSJ0aXRsZTQ5MDc5Ij5TaGVldC4zOTkzPC90aXRsZT4mI3hhOwkJCQkJPHBhdGggaWQ9InBhdGg0OTA4MSIgaW5rc2NhcGU6Y29ubmVjdG9yLWN1cnZhdHVyZT0iMCIgc3R5bGU9ImZpbGw6I0U5QUM0NzsiIGQ9Ik0yNS44MSw1Ny4wMUgwLjkxQzAuNDEsNTcuMDEsMCw1Ni42LDAsNTYuMDkgICAgICAgdi05Ljc1aDI2LjcydjkuNzVDMjYuNzIsNTYuNiwyNi4zMSw1Ny4wMSwyNS44MSw1Ny4wMXoiLz4mI3hhOwkJCQk8L2c+JiN4YTsJCQkJPGcgaWQ9Imdyb3VwMzk5NC0xMCIgdHJhbnNmb3JtPSJ0cmFuc2xhdGUoNC45NzA4NSwtMTUuMDY1MSkiPiYjeGE7CQkJCQk8dGl0bGUgaWQ9InRpdGxlNDkwODQiPlNoZWV0LjM5OTQ8L3RpdGxlPiYjeGE7CQkJCQk8ZyBpZD0ic2hhcGUzOTk1LTExIj4mI3hhOwkJCQkJCTx0aXRsZSBpZD0idGl0bGU0OTA4NiI+U2hlZXQuMzk5NTwvdGl0bGU+JiN4YTsJCQkJCQk8cGF0aCBpZD0icGF0aDQ5MDg4IiBpbmtzY2FwZTpjb25uZWN0b3ItY3VydmF0dXJlPSIwIiBzdHlsZT0iZmlsbDojRTlBQzQ3OyIgZD0iTTMuMTEsNDguODV2LTIuNTEgICAgICAgIGMwLTAuMzUsMC4yOC0wLjYzLDAuNjItMC42M3MwLjYyLTAuMjgsMC42Mi0wLjYzYzAtMC4zNC0wLjI4LTAuNjMtMC42Mi0wLjYzYy0xLjAzLDAtMS44NywwLjg1LTEuODcsMS44OXYyLjUxICAgICAgICBjMCwwLjY5LTAuNTUsMS4yNS0xLjI0LDEuMjVDMC4yOCw1MC4xLDAsNTAuMzksMCw1MC43M2MwLDAuMzUsMC4yOCwwLjYzLDAuNjIsMC42M2MwLjY5LDAsMS4yNCwwLjU2LDEuMjQsMS4yNnYyLjUxICAgICAgICBjMCwxLjAzLDAuODQsMS44OCwxLjg3LDEuODhjMC4zNCwwLDAuNjItMC4yOCwwLjYyLTAuNjNjMC0wLjM1LTAuMjgtMC42My0wLjYyLTAuNjNzLTAuNjItMC4yOC0wLjYyLTAuNjJ2LTIuNTEgICAgICAgIGMwLTAuNzYtMC4zNC0xLjQzLTAuODYtMS44OUMyLjc3LDUwLjI3LDMuMTEsNDkuNiwzLjExLDQ4Ljg1eiIvPiYjeGE7CQkJCQk8L2c+JiN4YTsJCQkJCTxnIGlkPSJzaGFwZTM5OTYtMTMiIHRyYW5zZm9ybT0idHJhbnNsYXRlKDcuMTQ1NTksLTcuNTMyNTQpIj4mI3hhOwkJCQkJCTx0aXRsZSBpZD0idGl0bGU0OTA5MSI+U2hlZXQuMzk5NjwvdGl0bGU+JiN4YTsJCQkJCQk8ZWxsaXBzZSBpZD0iZWxsaXBzZTQ5MDkzIiBzdHlsZT0iZmlsbDojRTlBQzQ3OyIgY3g9IjAuOTMiIGN5PSI1Ni4wNyIgcng9IjAuOTMiIHJ5PSIwLjk0Ii8+JiN4YTsJCQkJCTwvZz4mI3hhOwkJCQkJPGcgaWQ9InNoYXBlMzk5Ny0xNSIgdHJhbnNmb3JtPSJ0cmFuc2xhdGUoMTEuODA1OCkiPiYjeGE7CQkJCQkJPHRpdGxlIGlkPSJ0aXRsZTQ5MDk2Ij5TaGVldC4zOTk3PC90aXRsZT4mI3hhOwkJCQkJCTxwYXRoIGlkPSJwYXRoNDkwOTgiIGlua3NjYXBlOmNvbm5lY3Rvci1jdXJ2YXR1cmU9IjAiIHN0eWxlPSJmaWxsOiNFOUFDNDc7IiBkPSJNMy43Myw1MC4xYy0wLjY5LDAtMS4yNC0wLjU2LTEuMjQtMS4yNSAgICAgICAgdi0yLjUxYzAtMS4wNC0wLjg0LTEuODktMS44Ny0xLjg5QzAuMjgsNDQuNDUsMCw0NC43NCwwLDQ1LjA4YzAsMC4zNSwwLjI4LDAuNjMsMC42MiwwLjYzczAuNjIsMC4yOCwwLjYyLDAuNjN2Mi41MSAgICAgICAgYzAsMC43NSwwLjM0LDEuNDIsMC44NiwxLjg4Yy0wLjUyLDAuNDYtMC44NiwxLjEzLTAuODYsMS44OXYyLjUxYzAsMC4zNC0wLjI4LDAuNjItMC42MiwwLjYyUzAsNTYuMDMsMCw1Ni4zOCAgICAgICAgYzAsMC4zNSwwLjI4LDAuNjMsMC42MiwwLjYzYzEuMDMsMCwxLjg3LTAuODUsMS44Ny0xLjg4di0yLjUxYzAtMC43LDAuNTUtMS4yNiwxLjI0LTEuMjZjMC4zNCwwLDAuNjItMC4yOCwwLjYyLTAuNjMgICAgICAgIEM0LjM1LDUwLjM5LDQuMDcsNTAuMSwzLjczLDUwLjF6Ii8+JiN4YTsJCQkJCTwvZz4mI3hhOwkJCQkJPGcgaWQ9InNoYXBlMzk5OC0xNyIgdHJhbnNmb3JtPSJ0cmFuc2xhdGUoNy40NTYyNywtMS44ODMxNCkiPiYjeGE7CQkJCQkJPHRpdGxlIGlkPSJ0aXRsZTQ5MTAxIj5TaGVldC4zOTk4PC90aXRsZT4mI3hhOwkJCQkJCTxwYXRoIGlkPSJwYXRoNDkxMDMiIGlua3NjYXBlOmNvbm5lY3Rvci1jdXJ2YXR1cmU9IjAiIHN0eWxlPSJmaWxsOiNFOUFDNDc7IiBkPSJNMC42Miw1My44N0MwLjI4LDUzLjg3LDAsNTQuMTUsMCw1NC41djEuODggICAgICAgIGMwLDAuMzUsMC4yOCwwLjYzLDAuNjIsMC42M3MwLjYyLTAuMjgsMC42Mi0wLjYzVjU0LjVDMS4yNCw1NC4xNSwwLjk2LDUzLjg3LDAuNjIsNTMuODd6Ii8+JiN4YTsJCQkJCTwvZz4mI3hhOwkJCQk8L2c+JiN4YTsJCQk8L2c+JiN4YTsJCTwvZz4mI3hhOwkJPGcgaWQ9Imdyb3VwMzk5OS0xOSIgdHJhbnNmb3JtPSJ0cmFuc2xhdGUoMy44MTMzNCwtMi40NTc4MSkiPiYjeGE7CQkJPHRpdGxlIGlkPSJ0aXRsZTQ5MTA5Ij5KU09OLjM2NjY0PC90aXRsZT4mI3hhOwkJCTxnIGlkPSJzaGFwZTQwMDAtMjAiIHRyYW5zZm9ybT0idHJhbnNsYXRlKDAsLTUuMzA5NzJlLTUpIj4mI3hhOwkJCQk8dGl0bGUgaWQ9InRpdGxlNDkxMTEiPlNoZWV0LjQwMDA8L3RpdGxlPiYjeGE7CQkJCTxwYXRoIGlkPSJwYXRoNDkxMTMiIGlua3NjYXBlOmNvbm5lY3Rvci1jdXJ2YXR1cmU9IjAiIHN0eWxlPSJmaWxsOiNGRkZGRkY7IiBkPSJNMy40OCw1MS4xN3Y0LjQzYzAsMC4yNi0wLjA1LDAuNDktMC4xNSwwLjY3ICAgICAgYy0wLjA5LDAuMTgtMC4yMywwLjMzLTAuMzksMC40NGMtMC4xNiwwLjExLTAuMzUsMC4xOS0wLjU3LDAuMjNjLTAuMjEsMC4wNS0wLjQzLDAuMDctMC42NiwwLjA3Yy0wLjExLDAtMC4yNC0wLjAxLTAuMzktMC4wNCAgICAgIGMtMC4xNi0wLjAyLTAuMzEtMC4wNS0wLjQ4LTAuMWMtMC4xNi0wLjA1LTAuMzEtMC4xMS0wLjQ2LTAuMTdDMC4yMyw1Ni42NCwwLjEsNTYuNTcsMCw1Ni40OWwwLjM5LTAuNjIgICAgICBjMC4wNSwwLjAzLDAuMTMsMC4wNywwLjIyLDAuMTFjMC4xLDAuMDQsMC4yLDAuMDcsMC4zMiwwLjExYzAuMTEsMC4wMywwLjIzLDAuMDYsMC4zNSwwLjA5YzAuMTIsMC4wMiwwLjI0LDAuMDMsMC4zNSwwLjAzICAgICAgYzAuMjcsMCwwLjQ5LTAuMDUsMC42NS0wLjE1YzAuMTYtMC4xMSwwLjI1LTAuMjksMC4yNi0wLjU0di00LjM1TDMuNDgsNTEuMTd6Ii8+JiN4YTsJCQk8L2c+JiN4YTsJCQk8ZyBpZD0ic2hhcGU0MDAxLTIyIiB0cmFuc2Zvcm09InRyYW5zbGF0ZSg0Ljc4NDA1LC0wLjAwNzg1ODM4KSI+JiN4YTsJCQkJPHRpdGxlIGlkPSJ0aXRsZTQ5MTE2Ij5TaGVldC40MDAxPC90aXRsZT4mI3hhOwkJCQk8cGF0aCBpZD0icGF0aDQ5MTE4IiBpbmtzY2FwZTpjb25uZWN0b3ItY3VydmF0dXJlPSIwIiBzdHlsZT0iZmlsbDojRkZGRkZGOyIgZD0iTTMuMyw1NS40MmMwLDAuMjEtMC4wNCwwLjQtMC4xMiwwLjYgICAgICBjLTAuMDksMC4xOS0wLjIxLDAuMzYtMC4zNiwwLjUxYy0wLjE2LDAuMTQtMC4zNSwwLjI2LTAuNTcsMC4zNWMtMC4yMywwLjA5LTAuNDksMC4xMy0wLjc4LDAuMTNjLTAuMTIsMC0wLjI1LTAuMDEtMC4zOC0wLjAyICAgICAgYy0wLjEzLTAuMDEtMC4yNi0wLjA0LTAuNC0wLjA3Yy0wLjEzLTAuMDMtMC4yNi0wLjA3LTAuMzgtMC4xMkMwLjE5LDU2Ljc0LDAuMDksNTYuNjgsMCw1Ni42bDAuMTYtMC42NiAgICAgIGMwLjA3LDAuMDQsMC4xNywwLjA4LDAuMjgsMC4xMmMwLjExLDAuMDMsMC4yMiwwLjA3LDAuMzQsMC4xYzAuMTIsMC4wNCwwLjI0LDAuMDYsMC4zNSwwLjA4YzAuMTIsMC4wMywwLjIzLDAuMDQsMC4zNCwwLjA0ICAgICAgYzAuMzEsMCwwLjU1LTAuMDgsMC43Mi0wLjIyYzAuMTYtMC4xNSwwLjI1LTAuMzcsMC4yNS0wLjY2YzAtMC4xNy0wLjA2LTAuMzItMC4xOC0wLjQ0Yy0wLjEyLTAuMTMtMC4yNy0wLjI0LTAuNDQtMC4zNCAgICAgIGMtMC4xOC0wLjEtMC4zNy0wLjItMC41OC0wLjNjLTAuMi0wLjEtMC40LTAuMjItMC41OC0wLjM2Yy0wLjE4LTAuMTMtMC4zMy0wLjI5LTAuNDQtMC40OGMtMC4xMi0wLjE4LTAuMTgtMC40MS0wLjE4LTAuNjkgICAgICBjMC0wLjI1LDAuMDQtMC40OCwwLjE0LTAuNjdjMC4wOS0wLjIsMC4yMS0wLjM2LDAuMzctMC41czAuMzQtMC4yNCwwLjU1LTAuMzFjMC4yMS0wLjA4LDAuNDMtMC4xMSwwLjY2LTAuMTEgICAgICBjMC4yNCwwLDAuNDgsMC4wMiwwLjcyLDAuMDZjMC4yNCwwLjA1LDAuNDMsMC4xMiwwLjU4LDAuMjJDMy4wMyw1MS41NCwzLDUxLjYyLDIuOTYsNTEuN2MtMC4wNSwwLjA4LTAuMDgsMC4xNS0wLjEyLDAuMjIgICAgICBjLTAuMDQsMC4wNy0wLjA3LDAuMTMtMC4wOSwwLjE3Yy0wLjAzLDAuMDUtMC4wNCwwLjA4LTAuMDUsMC4wOGMtMC4wMy0wLjAxLTAuMDYtMC4wMy0wLjEtMC4wNmMtMC4wNC0wLjAzLTAuMS0wLjA1LTAuMTctMC4wOCAgICAgIGMtMC4wNy0wLjAyLTAuMTctMC4wNC0wLjI5LTAuMDVjLTAuMTEtMC4wMS0wLjI3LTAuMDEtMC40NSwwLjAxYy0wLjEsMC4wMS0wLjIsMC4wNC0wLjI5LDAuMDhjLTAuMSwwLjA1LTAuMTgsMC4xMS0wLjI1LDAuMTkgICAgICBjLTAuMDcsMC4wNy0wLjEzLDAuMTUtMC4xNywwLjI0Yy0wLjA0LDAuMDktMC4wNiwwLjE4LTAuMDYsMC4yNmMwLDAuMiwwLjA2LDAuMzcsMC4xNywwLjVjMC4xMiwwLjEyLDAuMjcsMC4yMywwLjQ0LDAuMzMgICAgICBjMC4xOCwwLjA5LDAuMzcsMC4xOSwwLjU4LDAuMjhjMC4yLDAuMDgsMC4zOSwwLjE5LDAuNTcsMC4zMmMwLjE4LDAuMTMsMC4zMywwLjI5LDAuNDQsMC40OUMzLjI0LDU0Ljg3LDMuMyw1NS4xMiwzLjMsNTUuNDJ6Ii8+JiN4YTsJCQk8L2c+JiN4YTsJCQk8ZyBpZD0ic2hhcGU0MDAyLTI0IiB0cmFuc2Zvcm09InRyYW5zbGF0ZSg4LjkzNjUyKSI+JiN4YTsJCQkJPHRpdGxlIGlkPSJ0aXRsZTQ5MTIxIj5TaGVldC40MDAyPC90aXRsZT4mI3hhOwkJCQk8cGF0aCBpZD0icGF0aDQ5MTIzIiBpbmtzY2FwZTpjb25uZWN0b3ItY3VydmF0dXJlPSIwIiBzdHlsZT0iZmlsbDojRkZGRkZGOyIgZD0iTTQuNzQsNTQuMWMwLDAuNDgtMC4wNiwwLjktMC4xOCwxLjI3ICAgICAgYy0wLjEyLDAuMzYtMC4yOSwwLjY2LTAuNTEsMC45MWMtMC4yMSwwLjI0LTAuNDYsMC40Mi0wLjc0LDAuNTRjLTAuMjksMC4xMy0wLjYsMC4xOS0wLjk0LDAuMTlzLTAuNjUtMC4wNi0wLjk0LTAuMTkgICAgICBjLTAuMjgtMC4xMi0wLjUzLTAuMy0wLjc1LTAuNTRjLTAuMjEtMC4yNS0wLjM4LTAuNTUtMC41LTAuOTFDMC4wNiw1NSwwLDU0LjU4LDAsNTQuMWMwLTAuNDgsMC4wNi0wLjksMC4xOC0xLjI2ICAgICAgczAuMjktMC42NywwLjUtMC45MWMwLjIyLTAuMjQsMC40Ny0wLjQyLDAuNzUtMC41NWMwLjI5LTAuMTMsMC42LTAuMTksMC45NC0wLjE5czAuNjUsMC4wNiwwLjk0LDAuMTkgICAgICBjMC4yOCwwLjEzLDAuNTMsMC4zMSwwLjc0LDAuNTVjMC4yMiwwLjI0LDAuMzksMC41NSwwLjUxLDAuOTFDNC42OCw1My4yLDQuNzQsNTMuNjIsNC43NCw1NC4xeiBNMi4zNSw1Ni4yNSAgICAgIGMwLjE5LDAsMC4zNy0wLjAzLDAuNTQtMC4xMWMwLjE3LTAuMDcsMC4zMy0wLjIsMC40Ni0wLjM2YzAuMTQtMC4xNywwLjI1LTAuNCwwLjMyLTAuNjdjMC4wOC0wLjI4LDAuMTItMC42MSwwLjEzLTEuMDEgICAgICBjLTAuMDEtMC4zOS0wLjA1LTAuNzEtMC4xMi0wLjk4Yy0wLjA4LTAuMjctMC4xOC0wLjUtMC4zMS0wLjY3Yy0wLjEzLTAuMTgtMC4yOC0wLjMtMC40NS0wLjM4Yy0wLjE3LTAuMDgtMC4zNC0wLjExLTAuNTMtMC4xMSAgICAgIGMtMC4xOSwwLTAuMzcsMC4wMy0wLjU0LDAuMWMtMC4xOCwwLjA4LTAuMzMsMC4yLTAuNDcsMC4zN2MtMC4xMywwLjE3LTAuMjQsMC4zOS0wLjMyLDAuNjdjLTAuMDcsMC4yNy0wLjExLDAuNi0wLjEyLDEgICAgICBjMC4wMSwwLjM5LDAuMDUsMC43MiwwLjEyLDAuOTljMC4wOCwwLjI3LDAuMTgsMC40OSwwLjMxLDAuNjdjMC4xMywwLjE3LDAuMjgsMC4yOSwwLjQ1LDAuMzdDMS45OCw1Ni4yMSwyLjE2LDU2LjI1LDIuMzUsNTYuMjUgICAgICB6Ii8+JiN4YTsJCQk8L2c+JiN4YTsJCQk8ZyBpZD0ic2hhcGU0MDAzLTI2IiB0cmFuc2Zvcm09InRyYW5zbGF0ZSgxNC45Nzg3LC0wLjAzODM4OTIpIj4mI3hhOwkJCQk8dGl0bGUgaWQ9InRpdGxlNDkxMjYiPlNoZWV0LjQwMDM8L3RpdGxlPiYjeGE7CQkJCTxwYXRoIGlkPSJwYXRoNDkxMjgiIGlua3NjYXBlOmNvbm5lY3Rvci1jdXJ2YXR1cmU9IjAiIHN0eWxlPSJmaWxsOiNGRkZGRkY7IiBkPSJNNC4xMSw1MS4zMnY1LjY5SDMuMTdsLTIuMjMtMy45MnYzLjkySDB2LTUuNjkgICAgICBoMC45NGwyLjIzLDMuOTJ2LTMuOTJMNC4xMSw1MS4zMnoiLz4mI3hhOwkJCTwvZz4mI3hhOwkJPC9nPiYjeGE7CTwvZz4mI3hhOzwvZz4mI3hhOzwvc3ZnPg==;" vertex="1" parent="1">
          <mxGeometry x="290" y="80" width="46.28" height="60" as="geometry" />
        </mxCell>
        <mxCell id="p6jh_FOEO8K4yXYaCJv4-4" value="Admin Portal Draft Collection" style="text;html=1;resizable=0;autosize=1;align=center;verticalAlign=middle;points=[];fillColor=none;strokeColor=none;rounded=0;" vertex="1" parent="1">
          <mxGeometry x="200" y="170" width="180" height="30" as="geometry" />
        </mxCell>
        <mxCell id="p6jh_FOEO8K4yXYaCJv4-8" style="edgeStyle=elbowEdgeStyle;rounded=0;orthogonalLoop=1;jettySize=auto;html=1;endArrow=blockThin;endFill=1;startArrow=blockThin;startFill=1;shape=flexArrow;entryX=0.54;entryY=0.011;entryDx=0;entryDy=0;entryPerimeter=0;strokeColor=#0000FF;" edge="1" parent="1" source="p6jh_FOEO8K4yXYaCJv4-5" target="p6jh_FOEO8K4yXYaCJv4-12">
          <mxGeometry relative="1" as="geometry" />
        </mxCell>
        <mxCell id="p6jh_FOEO8K4yXYaCJv4-5" value="{&lt;br&gt;OAOMasterConfiguration : {},&lt;br&gt;OLAMasterConfiguration : {}&lt;br&gt;}" style="text;html=1;resizable=0;autosize=1;align=center;verticalAlign=middle;points=[];fillColor=none;strokeColor=none;rounded=0;" vertex="1" parent="1">
          <mxGeometry x="200" y="190" width="180" height="70" as="geometry" />
        </mxCell>
        <mxCell id="p6jh_FOEO8K4yXYaCJv4-9" value="Save Draft" style="text;html=1;resizable=0;autosize=1;align=center;verticalAlign=middle;points=[];fillColor=none;strokeColor=none;rounded=0;" vertex="1" parent="1">
          <mxGeometry x="102.60000000000002" y="414" width="80" height="30" as="geometry" />
        </mxCell>
        <mxCell id="p6jh_FOEO8K4yXYaCJv4-10" value="" style="shape=image;verticalLabelPosition=bottom;labelBackgroundColor=#ffffff;verticalAlign=top;aspect=fixed;imageAspect=0;image=data:image/svg+xml,PHN2ZyB4bWxuczpkYz0iaHR0cDovL3B1cmwub3JnL2RjL2VsZW1lbnRzLzEuMS8iIHhtbG5zOmNjPSJodHRwOi8vY3JlYXRpdmVjb21tb25zLm9yZy9ucyMiIHhtbG5zOnJkZj0iaHR0cDovL3d3dy53My5vcmcvMTk5OS8wMi8yMi1yZGYtc3ludGF4LW5zIyIgeG1sbnM6c3ZnPSJodHRwOi8vd3d3LnczLm9yZy8yMDAwL3N2ZyIgeG1sbnM9Imh0dHA6Ly93d3cudzMub3JnLzIwMDAvc3ZnIiB4bWxuczpzb2RpcG9kaT0iaHR0cDovL3NvZGlwb2RpLnNvdXJjZWZvcmdlLm5ldC9EVEQvc29kaXBvZGktMC5kdGQiIHhtbG5zOmlua3NjYXBlPSJodHRwOi8vd3d3Lmlua3NjYXBlLm9yZy9uYW1lc3BhY2VzL2lua3NjYXBlIiB2ZXJzaW9uPSIxLjEiIGlkPSJzdmc3OTg2MSIgaW5rc2NhcGU6dmVyc2lvbj0iMC45Mi4zICgyNDA1NTQ2LCAyMDE4LTAzLTExKSIgc29kaXBvZGk6ZG9jbmFtZT0iZG9jdW1lbnRkYi5zdmciIHg9IjBweCIgeT0iMHB4IiB2aWV3Qm94PSIwIDAgNzUuNTIgOTkuOSIgeG1sOnNwYWNlPSJwcmVzZXJ2ZSIgd2lkdGg9Ijc1LjUxOTk5NyIgaGVpZ2h0PSI5OS45MDAwMDIiPjxtZXRhZGF0YSBpZD0ibWV0YWRhdGExNTQ3Ij48cmRmOlJERj48Y2M6V29yayByZGY6YWJvdXQ9IiI+PGRjOmZvcm1hdD5pbWFnZS9zdmcreG1sPC9kYzpmb3JtYXQ+PGRjOnR5cGUgcmRmOnJlc291cmNlPSJodHRwOi8vcHVybC5vcmcvZGMvZGNtaXR5cGUvU3RpbGxJbWFnZSIvPjxkYzp0aXRsZS8+PC9jYzpXb3JrPjwvcmRmOlJERj48L21ldGFkYXRhPjxkZWZzIGlkPSJkZWZzMTU0NSI+JiN4YTsJJiN4YTsmI3hhOwkmI3hhOyYjeGE7CSYjeGE7JiN4YTsJJiN4YTsmI3hhOwkmI3hhOyYjeGE7CSYjeGE7CSYjeGE7CSYjeGE7JiN4YTsJJiN4YTsJJiN4YTsJJiN4YTsmI3hhOwkJJiN4YTsJJiN4YTsJCSYjeGE7CSYjeGE7CQkmI3hhOwkmI3hhOwkJJiN4YTsJJiN4YTsJCSYjeGE7CSYjeGE7CQkmI3hhOwkmI3hhOwkJJiN4YTsJJiN4YTsJCQkmI3hhOwkJJiN4YTsJCQkmI3hhOwkJPC9kZWZzPiYjeGE7PGZpbHRlciBpZD0iZmlsdGVyXzIiPiYjeGE7CTxmZUdhdXNzaWFuQmx1ciBpZD0iZmVHYXVzc2lhbkJsdXI3OTc5MSIgc3RkRGV2aWF0aW9uPSIyIi8+JiN4YTs8L2ZpbHRlcj4mI3hhOzxzb2RpcG9kaTpuYW1lZHZpZXcgYm9yZGVyY29sb3I9IiM2NjY2NjYiIGJvcmRlcm9wYWNpdHk9IjEiIGZpdC1tYXJnaW4tYm90dG9tPSIwIiBmaXQtbWFyZ2luLWxlZnQ9IjAiIGZpdC1tYXJnaW4tcmlnaHQ9IjAiIGZpdC1tYXJnaW4tdG9wPSIwIiBncmlkdG9sZXJhbmNlPSIxMCIgZ3VpZGV0b2xlcmFuY2U9IjEwIiBpZD0ibmFtZWR2aWV3Nzk4NjMiIGlua3NjYXBlOmN1cnJlbnQtbGF5ZXI9InN2Zzc5ODYxIiBpbmtzY2FwZTpjeD0iLTgyLjQ4ODg2MyIgaW5rc2NhcGU6Y3k9IjUxLjY0ODExNyIgaW5rc2NhcGU6cGFnZW9wYWNpdHk9IjAiIGlua3NjYXBlOnBhZ2VzaGFkb3c9IjIiIGlua3NjYXBlOndpbmRvdy1oZWlnaHQ9IjEwMTciIGlua3NjYXBlOndpbmRvdy1tYXhpbWl6ZWQ9IjEiIGlua3NjYXBlOndpbmRvdy13aWR0aD0iMTkyMCIgaW5rc2NhcGU6d2luZG93LXg9Ii04IiBpbmtzY2FwZTp3aW5kb3cteT0iLTgiIGlua3NjYXBlOnpvb209IjMuNjk2NzkwNyIgb2JqZWN0dG9sZXJhbmNlPSIxMCIgcGFnZWNvbG9yPSIjZmZmZmZmIiBzaG93Z3JpZD0iZmFsc2UiPiYjeGE7CTwvc29kaXBvZGk6bmFtZWR2aWV3PiYjeGE7JiN4YTs8cGF0aCBpZD0icGF0aDc5ODA0IiBpbmtzY2FwZTpjb25uZWN0b3ItY3VydmF0dXJlPSIwIiBzdHlsZT0iZmlsbDojMzk5OWM2IiBkPSJNIDAsMTMuNTkgViA4Ni4xMSBDIDAsOTMuNyAxNi43OCw5OS43IDM3Ljc2LDk5LjcgViAxMy41OSBaIi8+JiN4YTsmI3hhOzxwYXRoIGlkPSJwYXRoNzk4MTIiIGlua3NjYXBlOmNvbm5lY3Rvci1jdXJ2YXR1cmU9IjAiIHN0eWxlPSJmaWxsOiM1OWI0ZDkiIGQ9Im0gMzcuMTYsOTkuOSBoIDAuNiBjIDIwLjc4LDAgMzcuNzYsLTYuMiAzNy43NiwtMTMuNTkgViAxMy41OCBIIDM3LjE2IFoiLz4mI3hhOyYjeGE7PHBhdGggaWQ9InBhdGg3OTgyMCIgaW5rc2NhcGU6Y29ubmVjdG9yLWN1cnZhdHVyZT0iMCIgc3R5bGU9ImZpbGw6I2ZmZmZmZiIgZD0ibSA3NS41MiwxMy41OCBjIDAsNy41OSAtMTYuNzgsMTMuNTkgLTM3Ljc2LDEzLjU5IEMgMTYuNzgsMjcuMTcgMCwyMS4xNyAwLDEzLjU4IDAsNi4xOSAxNi45OCwwIDM3Ljc2LDAgNTguNTQsMCA3NS41Miw2LjE5IDc1LjUyLDEzLjU4IFoiLz4mI3hhOyYjeGE7PHBhdGggaWQ9InBhdGg3OTgyOCIgaW5rc2NhcGU6Y29ubmVjdG9yLWN1cnZhdHVyZT0iMCIgc3R5bGU9ImZpbGw6IzdmYmEwMCIgZD0ibSA2Ny43MywxMi43OSBjIDAsNC45OSAtMTMuMzksOC45OSAtMjkuOTcsOC45OSAtMTYuNTgsMCAtMjkuOTcsLTQgLTI5Ljk3LC04Ljk5IDAsLTUgMTMuMzksLTguOTkgMjkuOTcsLTguOTkgMTYuNTgsMCAyOS45NywzLjk5IDI5Ljk3LDguOTkgeiIvPiYjeGE7JiN4YTs8cGF0aCBpZD0icGF0aDc5ODM2IiBpbmtzY2FwZTpjb25uZWN0b3ItY3VydmF0dXJlPSIwIiBzdHlsZT0iZmlsbDojYjhkNDMyIiBkPSJtIDYxLjUzLDE4LjM4IGMgNCwtMS42IDYuMiwtMy40IDYuMiwtNS42IDAsLTQuOTkgLTEzLjM5LC04Ljk5IC0yOS45NywtOC45OSAtMTYuNTgsMCAtMjkuOTcsNCAtMjkuOTcsOC45OSAwLDIgMi40LDQgNi4xOSw1LjYgNS40LC0yLjIgMTMuOTksLTMuNiAyMy43OCwtMy42IDkuNTksMCAxOC4xOCwxLjQgMjMuNzcsMy42IHoiLz4mI3hhOzxwYXRoIGQ9Im0gMjYuOTY4MjMsODMuNTExOSBjIC0yLjk5LDAgLTUuMzksLTAuNCAtNi45OSwtMSAtMS44LC0wLjYgLTMsLTEuNiAtMy43OSwtMi44IC0wLjgsLTEuNCAtMS4yLC0zLjQgLTEuMiwtNS45OSB2IC00LjQgYyAwLC0yLjggLTEuMiwtNC4zOSAtMy42LC00LjM5IHYgLTUuNCBjIDIuNCwwIDMuNiwtMS40IDMuNiwtNC4zOSB2IC00IGMgMCwtMi44IDAuNCwtNC45OSAxLjIsLTYuMTkgMC43OSwtMS40IDEuOTksLTIuMiAzLjU5LC0zIDEuOCwtMC42IDQsLTEgNi45OSwtMSB2IDUuNCBjIC0xLjM5LDAgLTIuMTksMC4yIC0yLjk5LDAuNzkgLTAuNiwwLjYgLTEsMS42IC0xLDMgdiAzLjQgYyAwLDIuMiAtMC4yLDMuOTkgLTAuOCw1LjM5IC0wLjYsMS40IC0xLjYsMi40IC0zLDMgMS40LDAuNiAyLjQsMS42IDMsMy4yIDAuNiwxLjM5IDEsMy4zOSAxLDUuNTkgdiAzIGMgMCwxLjQgMC4yLDIuMzkgMC44LDIuOTkgMC42LDAuNiAxLjYsMSAyLjk5LDEgdiA1LjggeiIgc3R5bGU9ImZpbGw6I2ZmZmZmZiIgaW5rc2NhcGU6Y29ubmVjdG9yLWN1cnZhdHVyZT0iMCIgaWQ9InBhdGg3OTg0NiIvPiYjeGE7PHBhdGggZD0ibSA2MC45MzMwMyw2NC45MzE5IGMgLTIuMzksMCAtMy41OSwxLjM5IC0zLjU5LDQuMzkgdiA0IGMgMCwyLjc5IC0wLjQsNC45OSAtMS4yLDYuMTkgLTAuOCwxLjQgLTIsMi4yIC0zLjYsMyAtMS44LDAuNiAtMy45OSwxIC02Ljk5LDEgdiAtNS40IGMgMS40LDAgMi40LC0wLjIgMywtMC44IDAuNiwtMC42IDEsLTEuNTkgMSwtMi45OSB2IC0zLjQgYyAwLC0yLjIgMC4yLC00IDAuOCwtNS4zOSAwLjU5LC0xLjQgMS41OSwtMi40IDIuOTksLTMgLTEuNCwtMC42IC0yLjQsLTEuOCAtMi45OSwtMy4yIC0wLjYsLTEuNCAtMSwtMy4zOSAtMSwtNS41OSB2IC0zIGMgMCwtMS40IC0wLjIsLTIuNCAtMC44LC0zIC0wLjYsLTAuNiAtMS42LC0xIC0zLC0xIHYgLTUuMzkgYyAzLDAgNS4zOSwwLjQgNi45OSwxIDEuOCwwLjYgMywxLjYgMy44LDIuOCAwLjgsMS40IDEuMiwzLjM5IDEuMiw1Ljk5IHYgNC40IGMgMCwyLjc5IDEuMiw0LjM5IDMuNTksNC4zOSB2IDUgeiIgc3R5bGU9ImZpbGw6I2ZmZmZmZiIgaW5rc2NhcGU6Y29ubmVjdG9yLWN1cnZhdHVyZT0iMCIgaWQ9InBhdGg3OTg1NCIvPiYjeGE7PC9zdmc+;" vertex="1" parent="1">
          <mxGeometry x="605" y="50" width="41.8" height="55" as="geometry" />
        </mxCell>
        <mxCell id="p6jh_FOEO8K4yXYaCJv4-25" style="edgeStyle=none;rounded=0;orthogonalLoop=1;jettySize=auto;html=1;startArrow=none;startFill=0;endArrow=open;endFill=0;strokeColor=#187002;strokeWidth=2;" edge="1" parent="1" source="p6jh_FOEO8K4yXYaCJv4-11" target="p6jh_FOEO8K4yXYaCJv4-22">
          <mxGeometry relative="1" as="geometry" />
        </mxCell>
        <mxCell id="p6jh_FOEO8K4yXYaCJv4-11" value="" style="shape=image;verticalLabelPosition=bottom;labelBackgroundColor=#ffffff;verticalAlign=top;aspect=fixed;imageAspect=0;image=data:image/svg+xml,PHN2ZyB4bWxuczpjYz0iaHR0cDovL2NyZWF0aXZlY29tbW9ucy5vcmcvbnMjIiB4bWxuczpkYz0iaHR0cDovL3B1cmwub3JnL2RjL2VsZW1lbnRzLzEuMS8iIHhtbG5zOmlua3NjYXBlPSJodHRwOi8vd3d3Lmlua3NjYXBlLm9yZy9uYW1lc3BhY2VzL2lua3NjYXBlIiB4bWxuczpyZGY9Imh0dHA6Ly93d3cudzMub3JnLzE5OTkvMDIvMjItcmRmLXN5bnRheC1ucyMiIHhtbG5zOnNvZGlwb2RpPSJodHRwOi8vc29kaXBvZGkuc291cmNlZm9yZ2UubmV0L0RURC9zb2RpcG9kaS0wLmR0ZCIgeG1sbnM6c3ZnPSJodHRwOi8vd3d3LnczLm9yZy8yMDAwL3N2ZyIgeG1sbnM9Imh0dHA6Ly93d3cudzMub3JnLzIwMDAvc3ZnIiB4bWxuczp4bGluaz0iaHR0cDovL3d3dy53My5vcmcvMTk5OS94bGluayIgdmVyc2lvbj0iMS4xIiBpZD0ic3ZnNDkxMzUiIGlua3NjYXBlOnZlcnNpb249IjAuOTIuMyAoMjQwNTU0NiwgMjAxOC0wMy0xMSkiIHNvZGlwb2RpOmRvY25hbWU9Impzb24uc3ZnIiB4PSIwcHgiIHk9IjBweCIgdmlld0JveD0iMCAwIDI2LjcyIDM1LjE1IiBzdHlsZT0iZW5hYmxlLWJhY2tncm91bmQ6bmV3IDAgMCAyNi43MiAzNS4xNTsiIHhtbDpzcGFjZT0icHJlc2VydmUiPiYjeGE7PHNvZGlwb2RpOm5hbWVkdmlldyBib3JkZXJjb2xvcj0iIzY2NjY2NiIgYm9yZGVyb3BhY2l0eT0iMSIgZml0LW1hcmdpbi1ib3R0b209IjAiIGZpdC1tYXJnaW4tbGVmdD0iMCIgZml0LW1hcmdpbi1yaWdodD0iMCIgZml0LW1hcmdpbi10b3A9IjAiIGdyaWR0b2xlcmFuY2U9IjEwIiBndWlkZXRvbGVyYW5jZT0iMTAiIGlkPSJuYW1lZHZpZXc0OTEzNyIgaW5rc2NhcGU6Y3VycmVudC1sYXllcj0ic3ZnNDkxMzUiIGlua3NjYXBlOmN4PSIxNy44MTIxNTYiIGlua3NjYXBlOmN5PSIyMy40MzU4OTYiIGlua3NjYXBlOnBhZ2VvcGFjaXR5PSIwIiBpbmtzY2FwZTpwYWdlc2hhZG93PSIyIiBpbmtzY2FwZTp3aW5kb3ctaGVpZ2h0PSIxMDE3IiBpbmtzY2FwZTp3aW5kb3ctbWF4aW1pemVkPSIxIiBpbmtzY2FwZTp3aW5kb3ctd2lkdGg9IjE5MjAiIGlua3NjYXBlOndpbmRvdy14PSItOCIgaW5rc2NhcGU6d2luZG93LXk9Ii04IiBpbmtzY2FwZTp6b29tPSIxMS40MDYwODkiIG9iamVjdHRvbGVyYW5jZT0iMTAiIHBhZ2Vjb2xvcj0iI2ZmZmZmZiIgc2hvd2dyaWQ9ImZhbHNlIj4mI3hhOwk8L3NvZGlwb2RpOm5hbWVkdmlldz4mI3hhOzxnIGlkPSJnNDkxMzMiIHRyYW5zZm9ybT0idHJhbnNsYXRlKC0xMC45Mjg2LC0xMC45MzE0KSI+JiN4YTsJPHRpdGxlIGlkPSJ0aXRsZTQ5MDYxIj5QYWdlLTE8L3RpdGxlPiYjeGE7CTxnIGlkPSJncm91cDM5ODgtMSIgdHJhbnNmb3JtPSJ0cmFuc2xhdGUoMTAuOTI4NiwtMTAuOTI4NikiPiYjeGE7CQk8dGl0bGUgaWQ9InRpdGxlNDkwNjMiPkpTT04uMjY2PC90aXRsZT4mI3hhOwkJPGcgaWQ9Imdyb3VwMzk4OS0yIj4mI3hhOwkJCTx0aXRsZSBpZD0idGl0bGU0OTA2NSI+SlM8L3RpdGxlPiYjeGE7CQkJPGcgaWQ9Imdyb3VwMzk5MC0zIj4mI3hhOwkJCQk8dGl0bGUgaWQ9InRpdGxlNDkwNjciPlNoZWV0LjM5OTA8L3RpdGxlPiYjeGE7CQkJCTxnIGlkPSJzaGFwZTM5OTEtNCI+JiN4YTsJCQkJCTx0aXRsZSBpZD0idGl0bGU0OTA2OSI+U2hlZXQuMzk5MTwvdGl0bGU+JiN4YTsJCQkJCTxwYXRoIGlkPSJwYXRoNDkwNzEiIGlua3NjYXBlOmNvbm5lY3Rvci1jdXJ2YXR1cmU9IjAiIHN0eWxlPSJmaWxsOiNFOUU5RTA7IiBkPSJNMTguOTQsMjEuODZIMC45MWMtMC41LDAtMC45MSwwLjQxLTAuOTEsMS4yMSAgICAgICB2MzMuMzFjMCwwLjIyLDAuNDEsMC42MywwLjkxLDAuNjNoMjQuOWMwLjUsMCwwLjkxLTAuNDEsMC45MS0wLjYzVjMwYzAtMC40My0wLjA2LTAuNTctMC4xNi0wLjY4bC03LjIzLTcuMyAgICAgICBDMTkuMjMsMjEuOTIsMTkuMDksMjEuODYsMTguOTQsMjEuODZ6Ii8+JiN4YTsJCQkJPC9nPiYjeGE7CQkJCTxnIGlkPSJzaGFwZTM5OTItNiIgdHJhbnNmb3JtPSJ0cmFuc2xhdGUoMTkuMjYyLC0yNy42MTkzKSI+JiN4YTsJCQkJCTx0aXRsZSBpZD0idGl0bGU0OTA3NCI+U2hlZXQuMzk5MjwvdGl0bGU+JiN4YTsJCQkJCTxwYXRoIGlkPSJwYXRoNDkwNzYiIGlua3NjYXBlOmNvbm5lY3Rvci1jdXJ2YXR1cmU9IjAiIHN0eWxlPSJmaWxsOiNEOUQ3Q0E7IiBkPSJNMCw0OS41N3Y3LjQ0aDcuMzZMMCw0OS41N3oiLz4mI3hhOwkJCQk8L2c+JiN4YTsJCQkJPGcgaWQ9InNoYXBlMzk5My04Ij4mI3hhOwkJCQkJPHRpdGxlIGlkPSJ0aXRsZTQ5MDc5Ij5TaGVldC4zOTkzPC90aXRsZT4mI3hhOwkJCQkJPHBhdGggaWQ9InBhdGg0OTA4MSIgaW5rc2NhcGU6Y29ubmVjdG9yLWN1cnZhdHVyZT0iMCIgc3R5bGU9ImZpbGw6I0U5QUM0NzsiIGQ9Ik0yNS44MSw1Ny4wMUgwLjkxQzAuNDEsNTcuMDEsMCw1Ni42LDAsNTYuMDkgICAgICAgdi05Ljc1aDI2LjcydjkuNzVDMjYuNzIsNTYuNiwyNi4zMSw1Ny4wMSwyNS44MSw1Ny4wMXoiLz4mI3hhOwkJCQk8L2c+JiN4YTsJCQkJPGcgaWQ9Imdyb3VwMzk5NC0xMCIgdHJhbnNmb3JtPSJ0cmFuc2xhdGUoNC45NzA4NSwtMTUuMDY1MSkiPiYjeGE7CQkJCQk8dGl0bGUgaWQ9InRpdGxlNDkwODQiPlNoZWV0LjM5OTQ8L3RpdGxlPiYjeGE7CQkJCQk8ZyBpZD0ic2hhcGUzOTk1LTExIj4mI3hhOwkJCQkJCTx0aXRsZSBpZD0idGl0bGU0OTA4NiI+U2hlZXQuMzk5NTwvdGl0bGU+JiN4YTsJCQkJCQk8cGF0aCBpZD0icGF0aDQ5MDg4IiBpbmtzY2FwZTpjb25uZWN0b3ItY3VydmF0dXJlPSIwIiBzdHlsZT0iZmlsbDojRTlBQzQ3OyIgZD0iTTMuMTEsNDguODV2LTIuNTEgICAgICAgIGMwLTAuMzUsMC4yOC0wLjYzLDAuNjItMC42M3MwLjYyLTAuMjgsMC42Mi0wLjYzYzAtMC4zNC0wLjI4LTAuNjMtMC42Mi0wLjYzYy0xLjAzLDAtMS44NywwLjg1LTEuODcsMS44OXYyLjUxICAgICAgICBjMCwwLjY5LTAuNTUsMS4yNS0xLjI0LDEuMjVDMC4yOCw1MC4xLDAsNTAuMzksMCw1MC43M2MwLDAuMzUsMC4yOCwwLjYzLDAuNjIsMC42M2MwLjY5LDAsMS4yNCwwLjU2LDEuMjQsMS4yNnYyLjUxICAgICAgICBjMCwxLjAzLDAuODQsMS44OCwxLjg3LDEuODhjMC4zNCwwLDAuNjItMC4yOCwwLjYyLTAuNjNjMC0wLjM1LTAuMjgtMC42My0wLjYyLTAuNjNzLTAuNjItMC4yOC0wLjYyLTAuNjJ2LTIuNTEgICAgICAgIGMwLTAuNzYtMC4zNC0xLjQzLTAuODYtMS44OUMyLjc3LDUwLjI3LDMuMTEsNDkuNiwzLjExLDQ4Ljg1eiIvPiYjeGE7CQkJCQk8L2c+JiN4YTsJCQkJCTxnIGlkPSJzaGFwZTM5OTYtMTMiIHRyYW5zZm9ybT0idHJhbnNsYXRlKDcuMTQ1NTksLTcuNTMyNTQpIj4mI3hhOwkJCQkJCTx0aXRsZSBpZD0idGl0bGU0OTA5MSI+U2hlZXQuMzk5NjwvdGl0bGU+JiN4YTsJCQkJCQk8ZWxsaXBzZSBpZD0iZWxsaXBzZTQ5MDkzIiBzdHlsZT0iZmlsbDojRTlBQzQ3OyIgY3g9IjAuOTMiIGN5PSI1Ni4wNyIgcng9IjAuOTMiIHJ5PSIwLjk0Ii8+JiN4YTsJCQkJCTwvZz4mI3hhOwkJCQkJPGcgaWQ9InNoYXBlMzk5Ny0xNSIgdHJhbnNmb3JtPSJ0cmFuc2xhdGUoMTEuODA1OCkiPiYjeGE7CQkJCQkJPHRpdGxlIGlkPSJ0aXRsZTQ5MDk2Ij5TaGVldC4zOTk3PC90aXRsZT4mI3hhOwkJCQkJCTxwYXRoIGlkPSJwYXRoNDkwOTgiIGlua3NjYXBlOmNvbm5lY3Rvci1jdXJ2YXR1cmU9IjAiIHN0eWxlPSJmaWxsOiNFOUFDNDc7IiBkPSJNMy43Myw1MC4xYy0wLjY5LDAtMS4yNC0wLjU2LTEuMjQtMS4yNSAgICAgICAgdi0yLjUxYzAtMS4wNC0wLjg0LTEuODktMS44Ny0xLjg5QzAuMjgsNDQuNDUsMCw0NC43NCwwLDQ1LjA4YzAsMC4zNSwwLjI4LDAuNjMsMC42MiwwLjYzczAuNjIsMC4yOCwwLjYyLDAuNjN2Mi41MSAgICAgICAgYzAsMC43NSwwLjM0LDEuNDIsMC44NiwxLjg4Yy0wLjUyLDAuNDYtMC44NiwxLjEzLTAuODYsMS44OXYyLjUxYzAsMC4zNC0wLjI4LDAuNjItMC42MiwwLjYyUzAsNTYuMDMsMCw1Ni4zOCAgICAgICAgYzAsMC4zNSwwLjI4LDAuNjMsMC42MiwwLjYzYzEuMDMsMCwxLjg3LTAuODUsMS44Ny0xLjg4di0yLjUxYzAtMC43LDAuNTUtMS4yNiwxLjI0LTEuMjZjMC4zNCwwLDAuNjItMC4yOCwwLjYyLTAuNjMgICAgICAgIEM0LjM1LDUwLjM5LDQuMDcsNTAuMSwzLjczLDUwLjF6Ii8+JiN4YTsJCQkJCTwvZz4mI3hhOwkJCQkJPGcgaWQ9InNoYXBlMzk5OC0xNyIgdHJhbnNmb3JtPSJ0cmFuc2xhdGUoNy40NTYyNywtMS44ODMxNCkiPiYjeGE7CQkJCQkJPHRpdGxlIGlkPSJ0aXRsZTQ5MTAxIj5TaGVldC4zOTk4PC90aXRsZT4mI3hhOwkJCQkJCTxwYXRoIGlkPSJwYXRoNDkxMDMiIGlua3NjYXBlOmNvbm5lY3Rvci1jdXJ2YXR1cmU9IjAiIHN0eWxlPSJmaWxsOiNFOUFDNDc7IiBkPSJNMC42Miw1My44N0MwLjI4LDUzLjg3LDAsNTQuMTUsMCw1NC41djEuODggICAgICAgIGMwLDAuMzUsMC4yOCwwLjYzLDAuNjIsMC42M3MwLjYyLTAuMjgsMC42Mi0wLjYzVjU0LjVDMS4yNCw1NC4xNSwwLjk2LDUzLjg3LDAuNjIsNTMuODd6Ii8+JiN4YTsJCQkJCTwvZz4mI3hhOwkJCQk8L2c+JiN4YTsJCQk8L2c+JiN4YTsJCTwvZz4mI3hhOwkJPGcgaWQ9Imdyb3VwMzk5OS0xOSIgdHJhbnNmb3JtPSJ0cmFuc2xhdGUoMy44MTMzNCwtMi40NTc4MSkiPiYjeGE7CQkJPHRpdGxlIGlkPSJ0aXRsZTQ5MTA5Ij5KU09OLjM2NjY0PC90aXRsZT4mI3hhOwkJCTxnIGlkPSJzaGFwZTQwMDAtMjAiIHRyYW5zZm9ybT0idHJhbnNsYXRlKDAsLTUuMzA5NzJlLTUpIj4mI3hhOwkJCQk8dGl0bGUgaWQ9InRpdGxlNDkxMTEiPlNoZWV0LjQwMDA8L3RpdGxlPiYjeGE7CQkJCTxwYXRoIGlkPSJwYXRoNDkxMTMiIGlua3NjYXBlOmNvbm5lY3Rvci1jdXJ2YXR1cmU9IjAiIHN0eWxlPSJmaWxsOiNGRkZGRkY7IiBkPSJNMy40OCw1MS4xN3Y0LjQzYzAsMC4yNi0wLjA1LDAuNDktMC4xNSwwLjY3ICAgICAgYy0wLjA5LDAuMTgtMC4yMywwLjMzLTAuMzksMC40NGMtMC4xNiwwLjExLTAuMzUsMC4xOS0wLjU3LDAuMjNjLTAuMjEsMC4wNS0wLjQzLDAuMDctMC42NiwwLjA3Yy0wLjExLDAtMC4yNC0wLjAxLTAuMzktMC4wNCAgICAgIGMtMC4xNi0wLjAyLTAuMzEtMC4wNS0wLjQ4LTAuMWMtMC4xNi0wLjA1LTAuMzEtMC4xMS0wLjQ2LTAuMTdDMC4yMyw1Ni42NCwwLjEsNTYuNTcsMCw1Ni40OWwwLjM5LTAuNjIgICAgICBjMC4wNSwwLjAzLDAuMTMsMC4wNywwLjIyLDAuMTFjMC4xLDAuMDQsMC4yLDAuMDcsMC4zMiwwLjExYzAuMTEsMC4wMywwLjIzLDAuMDYsMC4zNSwwLjA5YzAuMTIsMC4wMiwwLjI0LDAuMDMsMC4zNSwwLjAzICAgICAgYzAuMjcsMCwwLjQ5LTAuMDUsMC42NS0wLjE1YzAuMTYtMC4xMSwwLjI1LTAuMjksMC4yNi0wLjU0di00LjM1TDMuNDgsNTEuMTd6Ii8+JiN4YTsJCQk8L2c+JiN4YTsJCQk8ZyBpZD0ic2hhcGU0MDAxLTIyIiB0cmFuc2Zvcm09InRyYW5zbGF0ZSg0Ljc4NDA1LC0wLjAwNzg1ODM4KSI+JiN4YTsJCQkJPHRpdGxlIGlkPSJ0aXRsZTQ5MTE2Ij5TaGVldC40MDAxPC90aXRsZT4mI3hhOwkJCQk8cGF0aCBpZD0icGF0aDQ5MTE4IiBpbmtzY2FwZTpjb25uZWN0b3ItY3VydmF0dXJlPSIwIiBzdHlsZT0iZmlsbDojRkZGRkZGOyIgZD0iTTMuMyw1NS40MmMwLDAuMjEtMC4wNCwwLjQtMC4xMiwwLjYgICAgICBjLTAuMDksMC4xOS0wLjIxLDAuMzYtMC4zNiwwLjUxYy0wLjE2LDAuMTQtMC4zNSwwLjI2LTAuNTcsMC4zNWMtMC4yMywwLjA5LTAuNDksMC4xMy0wLjc4LDAuMTNjLTAuMTIsMC0wLjI1LTAuMDEtMC4zOC0wLjAyICAgICAgYy0wLjEzLTAuMDEtMC4yNi0wLjA0LTAuNC0wLjA3Yy0wLjEzLTAuMDMtMC4yNi0wLjA3LTAuMzgtMC4xMkMwLjE5LDU2Ljc0LDAuMDksNTYuNjgsMCw1Ni42bDAuMTYtMC42NiAgICAgIGMwLjA3LDAuMDQsMC4xNywwLjA4LDAuMjgsMC4xMmMwLjExLDAuMDMsMC4yMiwwLjA3LDAuMzQsMC4xYzAuMTIsMC4wNCwwLjI0LDAuMDYsMC4zNSwwLjA4YzAuMTIsMC4wMywwLjIzLDAuMDQsMC4zNCwwLjA0ICAgICAgYzAuMzEsMCwwLjU1LTAuMDgsMC43Mi0wLjIyYzAuMTYtMC4xNSwwLjI1LTAuMzcsMC4yNS0wLjY2YzAtMC4xNy0wLjA2LTAuMzItMC4xOC0wLjQ0Yy0wLjEyLTAuMTMtMC4yNy0wLjI0LTAuNDQtMC4zNCAgICAgIGMtMC4xOC0wLjEtMC4zNy0wLjItMC41OC0wLjNjLTAuMi0wLjEtMC40LTAuMjItMC41OC0wLjM2Yy0wLjE4LTAuMTMtMC4zMy0wLjI5LTAuNDQtMC40OGMtMC4xMi0wLjE4LTAuMTgtMC40MS0wLjE4LTAuNjkgICAgICBjMC0wLjI1LDAuMDQtMC40OCwwLjE0LTAuNjdjMC4wOS0wLjIsMC4yMS0wLjM2LDAuMzctMC41czAuMzQtMC4yNCwwLjU1LTAuMzFjMC4yMS0wLjA4LDAuNDMtMC4xMSwwLjY2LTAuMTEgICAgICBjMC4yNCwwLDAuNDgsMC4wMiwwLjcyLDAuMDZjMC4yNCwwLjA1LDAuNDMsMC4xMiwwLjU4LDAuMjJDMy4wMyw1MS41NCwzLDUxLjYyLDIuOTYsNTEuN2MtMC4wNSwwLjA4LTAuMDgsMC4xNS0wLjEyLDAuMjIgICAgICBjLTAuMDQsMC4wNy0wLjA3LDAuMTMtMC4wOSwwLjE3Yy0wLjAzLDAuMDUtMC4wNCwwLjA4LTAuMDUsMC4wOGMtMC4wMy0wLjAxLTAuMDYtMC4wMy0wLjEtMC4wNmMtMC4wNC0wLjAzLTAuMS0wLjA1LTAuMTctMC4wOCAgICAgIGMtMC4wNy0wLjAyLTAuMTctMC4wNC0wLjI5LTAuMDVjLTAuMTEtMC4wMS0wLjI3LTAuMDEtMC40NSwwLjAxYy0wLjEsMC4wMS0wLjIsMC4wNC0wLjI5LDAuMDhjLTAuMSwwLjA1LTAuMTgsMC4xMS0wLjI1LDAuMTkgICAgICBjLTAuMDcsMC4wNy0wLjEzLDAuMTUtMC4xNywwLjI0Yy0wLjA0LDAuMDktMC4wNiwwLjE4LTAuMDYsMC4yNmMwLDAuMiwwLjA2LDAuMzcsMC4xNywwLjVjMC4xMiwwLjEyLDAuMjcsMC4yMywwLjQ0LDAuMzMgICAgICBjMC4xOCwwLjA5LDAuMzcsMC4xOSwwLjU4LDAuMjhjMC4yLDAuMDgsMC4zOSwwLjE5LDAuNTcsMC4zMmMwLjE4LDAuMTMsMC4zMywwLjI5LDAuNDQsMC40OUMzLjI0LDU0Ljg3LDMuMyw1NS4xMiwzLjMsNTUuNDJ6Ii8+JiN4YTsJCQk8L2c+JiN4YTsJCQk8ZyBpZD0ic2hhcGU0MDAyLTI0IiB0cmFuc2Zvcm09InRyYW5zbGF0ZSg4LjkzNjUyKSI+JiN4YTsJCQkJPHRpdGxlIGlkPSJ0aXRsZTQ5MTIxIj5TaGVldC40MDAyPC90aXRsZT4mI3hhOwkJCQk8cGF0aCBpZD0icGF0aDQ5MTIzIiBpbmtzY2FwZTpjb25uZWN0b3ItY3VydmF0dXJlPSIwIiBzdHlsZT0iZmlsbDojRkZGRkZGOyIgZD0iTTQuNzQsNTQuMWMwLDAuNDgtMC4wNiwwLjktMC4xOCwxLjI3ICAgICAgYy0wLjEyLDAuMzYtMC4yOSwwLjY2LTAuNTEsMC45MWMtMC4yMSwwLjI0LTAuNDYsMC40Mi0wLjc0LDAuNTRjLTAuMjksMC4xMy0wLjYsMC4xOS0wLjk0LDAuMTlzLTAuNjUtMC4wNi0wLjk0LTAuMTkgICAgICBjLTAuMjgtMC4xMi0wLjUzLTAuMy0wLjc1LTAuNTRjLTAuMjEtMC4yNS0wLjM4LTAuNTUtMC41LTAuOTFDMC4wNiw1NSwwLDU0LjU4LDAsNTQuMWMwLTAuNDgsMC4wNi0wLjksMC4xOC0xLjI2ICAgICAgczAuMjktMC42NywwLjUtMC45MWMwLjIyLTAuMjQsMC40Ny0wLjQyLDAuNzUtMC41NWMwLjI5LTAuMTMsMC42LTAuMTksMC45NC0wLjE5czAuNjUsMC4wNiwwLjk0LDAuMTkgICAgICBjMC4yOCwwLjEzLDAuNTMsMC4zMSwwLjc0LDAuNTVjMC4yMiwwLjI0LDAuMzksMC41NSwwLjUxLDAuOTFDNC42OCw1My4yLDQuNzQsNTMuNjIsNC43NCw1NC4xeiBNMi4zNSw1Ni4yNSAgICAgIGMwLjE5LDAsMC4zNy0wLjAzLDAuNTQtMC4xMWMwLjE3LTAuMDcsMC4zMy0wLjIsMC40Ni0wLjM2YzAuMTQtMC4xNywwLjI1LTAuNCwwLjMyLTAuNjdjMC4wOC0wLjI4LDAuMTItMC42MSwwLjEzLTEuMDEgICAgICBjLTAuMDEtMC4zOS0wLjA1LTAuNzEtMC4xMi0wLjk4Yy0wLjA4LTAuMjctMC4xOC0wLjUtMC4zMS0wLjY3Yy0wLjEzLTAuMTgtMC4yOC0wLjMtMC40NS0wLjM4Yy0wLjE3LTAuMDgtMC4zNC0wLjExLTAuNTMtMC4xMSAgICAgIGMtMC4xOSwwLTAuMzcsMC4wMy0wLjU0LDAuMWMtMC4xOCwwLjA4LTAuMzMsMC4yLTAuNDcsMC4zN2MtMC4xMywwLjE3LTAuMjQsMC4zOS0wLjMyLDAuNjdjLTAuMDcsMC4yNy0wLjExLDAuNi0wLjEyLDEgICAgICBjMC4wMSwwLjM5LDAuMDUsMC43MiwwLjEyLDAuOTljMC4wOCwwLjI3LDAuMTgsMC40OSwwLjMxLDAuNjdjMC4xMywwLjE3LDAuMjgsMC4yOSwwLjQ1LDAuMzdDMS45OCw1Ni4yMSwyLjE2LDU2LjI1LDIuMzUsNTYuMjUgICAgICB6Ii8+JiN4YTsJCQk8L2c+JiN4YTsJCQk8ZyBpZD0ic2hhcGU0MDAzLTI2IiB0cmFuc2Zvcm09InRyYW5zbGF0ZSgxNC45Nzg3LC0wLjAzODM4OTIpIj4mI3hhOwkJCQk8dGl0bGUgaWQ9InRpdGxlNDkxMjYiPlNoZWV0LjQwMDM8L3RpdGxlPiYjeGE7CQkJCTxwYXRoIGlkPSJwYXRoNDkxMjgiIGlua3NjYXBlOmNvbm5lY3Rvci1jdXJ2YXR1cmU9IjAiIHN0eWxlPSJmaWxsOiNGRkZGRkY7IiBkPSJNNC4xMSw1MS4zMnY1LjY5SDMuMTdsLTIuMjMtMy45MnYzLjkySDB2LTUuNjkgICAgICBoMC45NGwyLjIzLDMuOTJ2LTMuOTJMNC4xMSw1MS4zMnoiLz4mI3hhOwkJCTwvZz4mI3hhOwkJPC9nPiYjeGE7CTwvZz4mI3hhOzwvZz4mI3hhOzwvc3ZnPg==;" vertex="1" parent="1">
          <mxGeometry x="625" y="80" width="42.42" height="55" as="geometry" />
        </mxCell>
        <mxCell id="p6jh_FOEO8K4yXYaCJv4-12" value="" style="verticalLabelPosition=bottom;html=1;verticalAlign=top;align=center;strokeColor=none;fillColor=#00BEF2;shape=mxgraph.azure.computer;pointerEvents=1;" vertex="1" parent="1">
          <mxGeometry x="135" y="520" width="125" height="120" as="geometry" />
        </mxCell>
        <mxCell id="p6jh_FOEO8K4yXYaCJv4-18" style="edgeStyle=none;rounded=0;orthogonalLoop=1;jettySize=auto;html=1;startArrow=none;startFill=0;endArrow=blockThin;endFill=1;strokeWidth=2;strokeColor=#00FFFF;" edge="1" parent="1" source="p6jh_FOEO8K4yXYaCJv4-6" target="p6jh_FOEO8K4yXYaCJv4-11">
          <mxGeometry relative="1" as="geometry">
            <mxPoint x="580" y="300" as="targetPoint" />
          </mxGeometry>
        </mxCell>
        <mxCell id="p6jh_FOEO8K4yXYaCJv4-6" value="" style="shape=image;html=1;verticalAlign=top;verticalLabelPosition=bottom;labelBackgroundColor=#ffffff;imageAspect=0;aspect=fixed;image=https://cdn1.iconfinder.com/data/icons/KDE_Crystal_Diamond_2.5_Classical_Mod/128x128/mimetypes/widget_doc.png" vertex="1" parent="1">
          <mxGeometry x="190" y="570" width="110" height="110" as="geometry" />
        </mxCell>
        <mxCell id="p6jh_FOEO8K4yXYaCJv4-13" value="DOP App Admin Widget" style="text;html=1;resizable=0;autosize=1;align=center;verticalAlign=middle;points=[];fillColor=none;strokeColor=none;rounded=0;" vertex="1" parent="1">
          <mxGeometry x="126.28" y="695" width="150" height="30" as="geometry" />
        </mxCell>
        <mxCell id="p6jh_FOEO8K4yXYaCJv4-14" value="" style="shape=image;verticalLabelPosition=bottom;labelBackgroundColor=#ffffff;verticalAlign=top;aspect=fixed;imageAspect=0;image=data:image/svg+xml,PHN2ZyB4bWxuczpkYz0iaHR0cDovL3B1cmwub3JnL2RjL2VsZW1lbnRzLzEuMS8iIHhtbG5zOmNjPSJodHRwOi8vY3JlYXRpdmVjb21tb25zLm9yZy9ucyMiIHhtbG5zOnJkZj0iaHR0cDovL3d3dy53My5vcmcvMTk5OS8wMi8yMi1yZGYtc3ludGF4LW5zIyIgeG1sbnM6c3ZnPSJodHRwOi8vd3d3LnczLm9yZy8yMDAwL3N2ZyIgeG1sbnM9Imh0dHA6Ly93d3cudzMub3JnLzIwMDAvc3ZnIiB4bWxuczpzb2RpcG9kaT0iaHR0cDovL3NvZGlwb2RpLnNvdXJjZWZvcmdlLm5ldC9EVEQvc29kaXBvZGktMC5kdGQiIHhtbG5zOmlua3NjYXBlPSJodHRwOi8vd3d3Lmlua3NjYXBlLm9yZy9uYW1lc3BhY2VzL2lua3NjYXBlIiB2ZXJzaW9uPSIxLjEiIGlkPSJzdmc3OTg2MSIgaW5rc2NhcGU6dmVyc2lvbj0iMC45Mi4zICgyNDA1NTQ2LCAyMDE4LTAzLTExKSIgc29kaXBvZGk6ZG9jbmFtZT0iZG9jdW1lbnRkYi5zdmciIHg9IjBweCIgeT0iMHB4IiB2aWV3Qm94PSIwIDAgNzUuNTIgOTkuOSIgeG1sOnNwYWNlPSJwcmVzZXJ2ZSIgd2lkdGg9Ijc1LjUxOTk5NyIgaGVpZ2h0PSI5OS45MDAwMDIiPjxtZXRhZGF0YSBpZD0ibWV0YWRhdGExNTQ3Ij48cmRmOlJERj48Y2M6V29yayByZGY6YWJvdXQ9IiI+PGRjOmZvcm1hdD5pbWFnZS9zdmcreG1sPC9kYzpmb3JtYXQ+PGRjOnR5cGUgcmRmOnJlc291cmNlPSJodHRwOi8vcHVybC5vcmcvZGMvZGNtaXR5cGUvU3RpbGxJbWFnZSIvPjxkYzp0aXRsZS8+PC9jYzpXb3JrPjwvcmRmOlJERj48L21ldGFkYXRhPjxkZWZzIGlkPSJkZWZzMTU0NSI+JiN4YTsJJiN4YTsmI3hhOwkmI3hhOyYjeGE7CSYjeGE7JiN4YTsJJiN4YTsmI3hhOwkmI3hhOyYjeGE7CSYjeGE7CSYjeGE7CSYjeGE7JiN4YTsJJiN4YTsJJiN4YTsJJiN4YTsmI3hhOwkJJiN4YTsJJiN4YTsJCSYjeGE7CSYjeGE7CQkmI3hhOwkmI3hhOwkJJiN4YTsJJiN4YTsJCSYjeGE7CSYjeGE7CQkmI3hhOwkmI3hhOwkJJiN4YTsJJiN4YTsJCQkmI3hhOwkJJiN4YTsJCQkmI3hhOwkJPC9kZWZzPiYjeGE7PGZpbHRlciBpZD0iZmlsdGVyXzIiPiYjeGE7CTxmZUdhdXNzaWFuQmx1ciBpZD0iZmVHYXVzc2lhbkJsdXI3OTc5MSIgc3RkRGV2aWF0aW9uPSIyIi8+JiN4YTs8L2ZpbHRlcj4mI3hhOzxzb2RpcG9kaTpuYW1lZHZpZXcgYm9yZGVyY29sb3I9IiM2NjY2NjYiIGJvcmRlcm9wYWNpdHk9IjEiIGZpdC1tYXJnaW4tYm90dG9tPSIwIiBmaXQtbWFyZ2luLWxlZnQ9IjAiIGZpdC1tYXJnaW4tcmlnaHQ9IjAiIGZpdC1tYXJnaW4tdG9wPSIwIiBncmlkdG9sZXJhbmNlPSIxMCIgZ3VpZGV0b2xlcmFuY2U9IjEwIiBpZD0ibmFtZWR2aWV3Nzk4NjMiIGlua3NjYXBlOmN1cnJlbnQtbGF5ZXI9InN2Zzc5ODYxIiBpbmtzY2FwZTpjeD0iLTgyLjQ4ODg2MyIgaW5rc2NhcGU6Y3k9IjUxLjY0ODExNyIgaW5rc2NhcGU6cGFnZW9wYWNpdHk9IjAiIGlua3NjYXBlOnBhZ2VzaGFkb3c9IjIiIGlua3NjYXBlOndpbmRvdy1oZWlnaHQ9IjEwMTciIGlua3NjYXBlOndpbmRvdy1tYXhpbWl6ZWQ9IjEiIGlua3NjYXBlOndpbmRvdy13aWR0aD0iMTkyMCIgaW5rc2NhcGU6d2luZG93LXg9Ii04IiBpbmtzY2FwZTp3aW5kb3cteT0iLTgiIGlua3NjYXBlOnpvb209IjMuNjk2NzkwNyIgb2JqZWN0dG9sZXJhbmNlPSIxMCIgcGFnZWNvbG9yPSIjZmZmZmZmIiBzaG93Z3JpZD0iZmFsc2UiPiYjeGE7CTwvc29kaXBvZGk6bmFtZWR2aWV3PiYjeGE7JiN4YTs8cGF0aCBpZD0icGF0aDc5ODA0IiBpbmtzY2FwZTpjb25uZWN0b3ItY3VydmF0dXJlPSIwIiBzdHlsZT0iZmlsbDojMzk5OWM2IiBkPSJNIDAsMTMuNTkgViA4Ni4xMSBDIDAsOTMuNyAxNi43OCw5OS43IDM3Ljc2LDk5LjcgViAxMy41OSBaIi8+JiN4YTsmI3hhOzxwYXRoIGlkPSJwYXRoNzk4MTIiIGlua3NjYXBlOmNvbm5lY3Rvci1jdXJ2YXR1cmU9IjAiIHN0eWxlPSJmaWxsOiM1OWI0ZDkiIGQ9Im0gMzcuMTYsOTkuOSBoIDAuNiBjIDIwLjc4LDAgMzcuNzYsLTYuMiAzNy43NiwtMTMuNTkgViAxMy41OCBIIDM3LjE2IFoiLz4mI3hhOyYjeGE7PHBhdGggaWQ9InBhdGg3OTgyMCIgaW5rc2NhcGU6Y29ubmVjdG9yLWN1cnZhdHVyZT0iMCIgc3R5bGU9ImZpbGw6I2ZmZmZmZiIgZD0ibSA3NS41MiwxMy41OCBjIDAsNy41OSAtMTYuNzgsMTMuNTkgLTM3Ljc2LDEzLjU5IEMgMTYuNzgsMjcuMTcgMCwyMS4xNyAwLDEzLjU4IDAsNi4xOSAxNi45OCwwIDM3Ljc2LDAgNTguNTQsMCA3NS41Miw2LjE5IDc1LjUyLDEzLjU4IFoiLz4mI3hhOyYjeGE7PHBhdGggaWQ9InBhdGg3OTgyOCIgaW5rc2NhcGU6Y29ubmVjdG9yLWN1cnZhdHVyZT0iMCIgc3R5bGU9ImZpbGw6IzdmYmEwMCIgZD0ibSA2Ny43MywxMi43OSBjIDAsNC45OSAtMTMuMzksOC45OSAtMjkuOTcsOC45OSAtMTYuNTgsMCAtMjkuOTcsLTQgLTI5Ljk3LC04Ljk5IDAsLTUgMTMuMzksLTguOTkgMjkuOTcsLTguOTkgMTYuNTgsMCAyOS45NywzLjk5IDI5Ljk3LDguOTkgeiIvPiYjeGE7JiN4YTs8cGF0aCBpZD0icGF0aDc5ODM2IiBpbmtzY2FwZTpjb25uZWN0b3ItY3VydmF0dXJlPSIwIiBzdHlsZT0iZmlsbDojYjhkNDMyIiBkPSJtIDYxLjUzLDE4LjM4IGMgNCwtMS42IDYuMiwtMy40IDYuMiwtNS42IDAsLTQuOTkgLTEzLjM5LC04Ljk5IC0yOS45NywtOC45OSAtMTYuNTgsMCAtMjkuOTcsNCAtMjkuOTcsOC45OSAwLDIgMi40LDQgNi4xOSw1LjYgNS40LC0yLjIgMTMuOTksLTMuNiAyMy43OCwtMy42IDkuNTksMCAxOC4xOCwxLjQgMjMuNzcsMy42IHoiLz4mI3hhOzxwYXRoIGQ9Im0gMjYuOTY4MjMsODMuNTExOSBjIC0yLjk5LDAgLTUuMzksLTAuNCAtNi45OSwtMSAtMS44LC0wLjYgLTMsLTEuNiAtMy43OSwtMi44IC0wLjgsLTEuNCAtMS4yLC0zLjQgLTEuMiwtNS45OSB2IC00LjQgYyAwLC0yLjggLTEuMiwtNC4zOSAtMy42LC00LjM5IHYgLTUuNCBjIDIuNCwwIDMuNiwtMS40IDMuNiwtNC4zOSB2IC00IGMgMCwtMi44IDAuNCwtNC45OSAxLjIsLTYuMTkgMC43OSwtMS40IDEuOTksLTIuMiAzLjU5LC0zIDEuOCwtMC42IDQsLTEgNi45OSwtMSB2IDUuNCBjIC0xLjM5LDAgLTIuMTksMC4yIC0yLjk5LDAuNzkgLTAuNiwwLjYgLTEsMS42IC0xLDMgdiAzLjQgYyAwLDIuMiAtMC4yLDMuOTkgLTAuOCw1LjM5IC0wLjYsMS40IC0xLjYsMi40IC0zLDMgMS40LDAuNiAyLjQsMS42IDMsMy4yIDAuNiwxLjM5IDEsMy4zOSAxLDUuNTkgdiAzIGMgMCwxLjQgMC4yLDIuMzkgMC44LDIuOTkgMC42LDAuNiAxLjYsMSAyLjk5LDEgdiA1LjggeiIgc3R5bGU9ImZpbGw6I2ZmZmZmZiIgaW5rc2NhcGU6Y29ubmVjdG9yLWN1cnZhdHVyZT0iMCIgaWQ9InBhdGg3OTg0NiIvPiYjeGE7PHBhdGggZD0ibSA2MC45MzMwMyw2NC45MzE5IGMgLTIuMzksMCAtMy41OSwxLjM5IC0zLjU5LDQuMzkgdiA0IGMgMCwyLjc5IC0wLjQsNC45OSAtMS4yLDYuMTkgLTAuOCwxLjQgLTIsMi4yIC0zLjYsMyAtMS44LDAuNiAtMy45OSwxIC02Ljk5LDEgdiAtNS40IGMgMS40LDAgMi40LC0wLjIgMywtMC44IDAuNiwtMC42IDEsLTEuNTkgMSwtMi45OSB2IC0zLjQgYyAwLC0yLjIgMC4yLC00IDAuOCwtNS4zOSAwLjU5LC0xLjQgMS41OSwtMi40IDIuOTksLTMgLTEuNCwtMC42IC0yLjQsLTEuOCAtMi45OSwtMy4yIC0wLjYsLTEuNCAtMSwtMy4zOSAtMSwtNS41OSB2IC0zIGMgMCwtMS40IC0wLjIsLTIuNCAtMC44LC0zIC0wLjYsLTAuNiAtMS42LC0xIC0zLC0xIHYgLTUuMzkgYyAzLDAgNS4zOSwwLjQgNi45OSwxIDEuOCwwLjYgMywxLjYgMy44LDIuOCAwLjgsMS40IDEuMiwzLjM5IDEuMiw1Ljk5IHYgNC40IGMgMCwyLjc5IDEuMiw0LjM5IDMuNTksNC4zOSB2IDUgeiIgc3R5bGU9ImZpbGw6I2ZmZmZmZiIgaW5rc2NhcGU6Y29ubmVjdG9yLWN1cnZhdHVyZT0iMCIgaWQ9InBhdGg3OTg1NCIvPiYjeGE7PC9zdmc+;" vertex="1" parent="1">
          <mxGeometry x="605" y="200" width="41.8" height="55" as="geometry" />
        </mxCell>
        <mxCell id="p6jh_FOEO8K4yXYaCJv4-26" style="edgeStyle=none;rounded=0;orthogonalLoop=1;jettySize=auto;html=1;startArrow=none;startFill=0;endArrow=open;endFill=0;strokeColor=#187002;strokeWidth=2;" edge="1" parent="1" source="p6jh_FOEO8K4yXYaCJv4-15" target="p6jh_FOEO8K4yXYaCJv4-22">
          <mxGeometry relative="1" as="geometry" />
        </mxCell>
        <mxCell id="p6jh_FOEO8K4yXYaCJv4-15" value="" style="shape=image;verticalLabelPosition=bottom;labelBackgroundColor=#ffffff;verticalAlign=top;aspect=fixed;imageAspect=0;image=data:image/svg+xml,PHN2ZyB4bWxuczpjYz0iaHR0cDovL2NyZWF0aXZlY29tbW9ucy5vcmcvbnMjIiB4bWxuczpkYz0iaHR0cDovL3B1cmwub3JnL2RjL2VsZW1lbnRzLzEuMS8iIHhtbG5zOmlua3NjYXBlPSJodHRwOi8vd3d3Lmlua3NjYXBlLm9yZy9uYW1lc3BhY2VzL2lua3NjYXBlIiB4bWxuczpyZGY9Imh0dHA6Ly93d3cudzMub3JnLzE5OTkvMDIvMjItcmRmLXN5bnRheC1ucyMiIHhtbG5zOnNvZGlwb2RpPSJodHRwOi8vc29kaXBvZGkuc291cmNlZm9yZ2UubmV0L0RURC9zb2RpcG9kaS0wLmR0ZCIgeG1sbnM6c3ZnPSJodHRwOi8vd3d3LnczLm9yZy8yMDAwL3N2ZyIgeG1sbnM9Imh0dHA6Ly93d3cudzMub3JnLzIwMDAvc3ZnIiB4bWxuczp4bGluaz0iaHR0cDovL3d3dy53My5vcmcvMTk5OS94bGluayIgdmVyc2lvbj0iMS4xIiBpZD0ic3ZnNDkxMzUiIGlua3NjYXBlOnZlcnNpb249IjAuOTIuMyAoMjQwNTU0NiwgMjAxOC0wMy0xMSkiIHNvZGlwb2RpOmRvY25hbWU9Impzb24uc3ZnIiB4PSIwcHgiIHk9IjBweCIgdmlld0JveD0iMCAwIDI2LjcyIDM1LjE1IiBzdHlsZT0iZW5hYmxlLWJhY2tncm91bmQ6bmV3IDAgMCAyNi43MiAzNS4xNTsiIHhtbDpzcGFjZT0icHJlc2VydmUiPiYjeGE7PHNvZGlwb2RpOm5hbWVkdmlldyBib3JkZXJjb2xvcj0iIzY2NjY2NiIgYm9yZGVyb3BhY2l0eT0iMSIgZml0LW1hcmdpbi1ib3R0b209IjAiIGZpdC1tYXJnaW4tbGVmdD0iMCIgZml0LW1hcmdpbi1yaWdodD0iMCIgZml0LW1hcmdpbi10b3A9IjAiIGdyaWR0b2xlcmFuY2U9IjEwIiBndWlkZXRvbGVyYW5jZT0iMTAiIGlkPSJuYW1lZHZpZXc0OTEzNyIgaW5rc2NhcGU6Y3VycmVudC1sYXllcj0ic3ZnNDkxMzUiIGlua3NjYXBlOmN4PSIxNy44MTIxNTYiIGlua3NjYXBlOmN5PSIyMy40MzU4OTYiIGlua3NjYXBlOnBhZ2VvcGFjaXR5PSIwIiBpbmtzY2FwZTpwYWdlc2hhZG93PSIyIiBpbmtzY2FwZTp3aW5kb3ctaGVpZ2h0PSIxMDE3IiBpbmtzY2FwZTp3aW5kb3ctbWF4aW1pemVkPSIxIiBpbmtzY2FwZTp3aW5kb3ctd2lkdGg9IjE5MjAiIGlua3NjYXBlOndpbmRvdy14PSItOCIgaW5rc2NhcGU6d2luZG93LXk9Ii04IiBpbmtzY2FwZTp6b29tPSIxMS40MDYwODkiIG9iamVjdHRvbGVyYW5jZT0iMTAiIHBhZ2Vjb2xvcj0iI2ZmZmZmZiIgc2hvd2dyaWQ9ImZhbHNlIj4mI3hhOwk8L3NvZGlwb2RpOm5hbWVkdmlldz4mI3hhOzxnIGlkPSJnNDkxMzMiIHRyYW5zZm9ybT0idHJhbnNsYXRlKC0xMC45Mjg2LC0xMC45MzE0KSI+JiN4YTsJPHRpdGxlIGlkPSJ0aXRsZTQ5MDYxIj5QYWdlLTE8L3RpdGxlPiYjeGE7CTxnIGlkPSJncm91cDM5ODgtMSIgdHJhbnNmb3JtPSJ0cmFuc2xhdGUoMTAuOTI4NiwtMTAuOTI4NikiPiYjeGE7CQk8dGl0bGUgaWQ9InRpdGxlNDkwNjMiPkpTT04uMjY2PC90aXRsZT4mI3hhOwkJPGcgaWQ9Imdyb3VwMzk4OS0yIj4mI3hhOwkJCTx0aXRsZSBpZD0idGl0bGU0OTA2NSI+SlM8L3RpdGxlPiYjeGE7CQkJPGcgaWQ9Imdyb3VwMzk5MC0zIj4mI3hhOwkJCQk8dGl0bGUgaWQ9InRpdGxlNDkwNjciPlNoZWV0LjM5OTA8L3RpdGxlPiYjeGE7CQkJCTxnIGlkPSJzaGFwZTM5OTEtNCI+JiN4YTsJCQkJCTx0aXRsZSBpZD0idGl0bGU0OTA2OSI+U2hlZXQuMzk5MTwvdGl0bGU+JiN4YTsJCQkJCTxwYXRoIGlkPSJwYXRoNDkwNzEiIGlua3NjYXBlOmNvbm5lY3Rvci1jdXJ2YXR1cmU9IjAiIHN0eWxlPSJmaWxsOiNFOUU5RTA7IiBkPSJNMTguOTQsMjEuODZIMC45MWMtMC41LDAtMC45MSwwLjQxLTAuOTEsMS4yMSAgICAgICB2MzMuMzFjMCwwLjIyLDAuNDEsMC42MywwLjkxLDAuNjNoMjQuOWMwLjUsMCwwLjkxLTAuNDEsMC45MS0wLjYzVjMwYzAtMC40My0wLjA2LTAuNTctMC4xNi0wLjY4bC03LjIzLTcuMyAgICAgICBDMTkuMjMsMjEuOTIsMTkuMDksMjEuODYsMTguOTQsMjEuODZ6Ii8+JiN4YTsJCQkJPC9nPiYjeGE7CQkJCTxnIGlkPSJzaGFwZTM5OTItNiIgdHJhbnNmb3JtPSJ0cmFuc2xhdGUoMTkuMjYyLC0yNy42MTkzKSI+JiN4YTsJCQkJCTx0aXRsZSBpZD0idGl0bGU0OTA3NCI+U2hlZXQuMzk5MjwvdGl0bGU+JiN4YTsJCQkJCTxwYXRoIGlkPSJwYXRoNDkwNzYiIGlua3NjYXBlOmNvbm5lY3Rvci1jdXJ2YXR1cmU9IjAiIHN0eWxlPSJmaWxsOiNEOUQ3Q0E7IiBkPSJNMCw0OS41N3Y3LjQ0aDcuMzZMMCw0OS41N3oiLz4mI3hhOwkJCQk8L2c+JiN4YTsJCQkJPGcgaWQ9InNoYXBlMzk5My04Ij4mI3hhOwkJCQkJPHRpdGxlIGlkPSJ0aXRsZTQ5MDc5Ij5TaGVldC4zOTkzPC90aXRsZT4mI3hhOwkJCQkJPHBhdGggaWQ9InBhdGg0OTA4MSIgaW5rc2NhcGU6Y29ubmVjdG9yLWN1cnZhdHVyZT0iMCIgc3R5bGU9ImZpbGw6I0U5QUM0NzsiIGQ9Ik0yNS44MSw1Ny4wMUgwLjkxQzAuNDEsNTcuMDEsMCw1Ni42LDAsNTYuMDkgICAgICAgdi05Ljc1aDI2LjcydjkuNzVDMjYuNzIsNTYuNiwyNi4zMSw1Ny4wMSwyNS44MSw1Ny4wMXoiLz4mI3hhOwkJCQk8L2c+JiN4YTsJCQkJPGcgaWQ9Imdyb3VwMzk5NC0xMCIgdHJhbnNmb3JtPSJ0cmFuc2xhdGUoNC45NzA4NSwtMTUuMDY1MSkiPiYjeGE7CQkJCQk8dGl0bGUgaWQ9InRpdGxlNDkwODQiPlNoZWV0LjM5OTQ8L3RpdGxlPiYjeGE7CQkJCQk8ZyBpZD0ic2hhcGUzOTk1LTExIj4mI3hhOwkJCQkJCTx0aXRsZSBpZD0idGl0bGU0OTA4NiI+U2hlZXQuMzk5NTwvdGl0bGU+JiN4YTsJCQkJCQk8cGF0aCBpZD0icGF0aDQ5MDg4IiBpbmtzY2FwZTpjb25uZWN0b3ItY3VydmF0dXJlPSIwIiBzdHlsZT0iZmlsbDojRTlBQzQ3OyIgZD0iTTMuMTEsNDguODV2LTIuNTEgICAgICAgIGMwLTAuMzUsMC4yOC0wLjYzLDAuNjItMC42M3MwLjYyLTAuMjgsMC42Mi0wLjYzYzAtMC4zNC0wLjI4LTAuNjMtMC42Mi0wLjYzYy0xLjAzLDAtMS44NywwLjg1LTEuODcsMS44OXYyLjUxICAgICAgICBjMCwwLjY5LTAuNTUsMS4yNS0xLjI0LDEuMjVDMC4yOCw1MC4xLDAsNTAuMzksMCw1MC43M2MwLDAuMzUsMC4yOCwwLjYzLDAuNjIsMC42M2MwLjY5LDAsMS4yNCwwLjU2LDEuMjQsMS4yNnYyLjUxICAgICAgICBjMCwxLjAzLDAuODQsMS44OCwxLjg3LDEuODhjMC4zNCwwLDAuNjItMC4yOCwwLjYyLTAuNjNjMC0wLjM1LTAuMjgtMC42My0wLjYyLTAuNjNzLTAuNjItMC4yOC0wLjYyLTAuNjJ2LTIuNTEgICAgICAgIGMwLTAuNzYtMC4zNC0xLjQzLTAuODYtMS44OUMyLjc3LDUwLjI3LDMuMTEsNDkuNiwzLjExLDQ4Ljg1eiIvPiYjeGE7CQkJCQk8L2c+JiN4YTsJCQkJCTxnIGlkPSJzaGFwZTM5OTYtMTMiIHRyYW5zZm9ybT0idHJhbnNsYXRlKDcuMTQ1NTksLTcuNTMyNTQpIj4mI3hhOwkJCQkJCTx0aXRsZSBpZD0idGl0bGU0OTA5MSI+U2hlZXQuMzk5NjwvdGl0bGU+JiN4YTsJCQkJCQk8ZWxsaXBzZSBpZD0iZWxsaXBzZTQ5MDkzIiBzdHlsZT0iZmlsbDojRTlBQzQ3OyIgY3g9IjAuOTMiIGN5PSI1Ni4wNyIgcng9IjAuOTMiIHJ5PSIwLjk0Ii8+JiN4YTsJCQkJCTwvZz4mI3hhOwkJCQkJPGcgaWQ9InNoYXBlMzk5Ny0xNSIgdHJhbnNmb3JtPSJ0cmFuc2xhdGUoMTEuODA1OCkiPiYjeGE7CQkJCQkJPHRpdGxlIGlkPSJ0aXRsZTQ5MDk2Ij5TaGVldC4zOTk3PC90aXRsZT4mI3hhOwkJCQkJCTxwYXRoIGlkPSJwYXRoNDkwOTgiIGlua3NjYXBlOmNvbm5lY3Rvci1jdXJ2YXR1cmU9IjAiIHN0eWxlPSJmaWxsOiNFOUFDNDc7IiBkPSJNMy43Myw1MC4xYy0wLjY5LDAtMS4yNC0wLjU2LTEuMjQtMS4yNSAgICAgICAgdi0yLjUxYzAtMS4wNC0wLjg0LTEuODktMS44Ny0xLjg5QzAuMjgsNDQuNDUsMCw0NC43NCwwLDQ1LjA4YzAsMC4zNSwwLjI4LDAuNjMsMC42MiwwLjYzczAuNjIsMC4yOCwwLjYyLDAuNjN2Mi41MSAgICAgICAgYzAsMC43NSwwLjM0LDEuNDIsMC44NiwxLjg4Yy0wLjUyLDAuNDYtMC44NiwxLjEzLTAuODYsMS44OXYyLjUxYzAsMC4zNC0wLjI4LDAuNjItMC42MiwwLjYyUzAsNTYuMDMsMCw1Ni4zOCAgICAgICAgYzAsMC4zNSwwLjI4LDAuNjMsMC42MiwwLjYzYzEuMDMsMCwxLjg3LTAuODUsMS44Ny0xLjg4di0yLjUxYzAtMC43LDAuNTUtMS4yNiwxLjI0LTEuMjZjMC4zNCwwLDAuNjItMC4yOCwwLjYyLTAuNjMgICAgICAgIEM0LjM1LDUwLjM5LDQuMDcsNTAuMSwzLjczLDUwLjF6Ii8+JiN4YTsJCQkJCTwvZz4mI3hhOwkJCQkJPGcgaWQ9InNoYXBlMzk5OC0xNyIgdHJhbnNmb3JtPSJ0cmFuc2xhdGUoNy40NTYyNywtMS44ODMxNCkiPiYjeGE7CQkJCQkJPHRpdGxlIGlkPSJ0aXRsZTQ5MTAxIj5TaGVldC4zOTk4PC90aXRsZT4mI3hhOwkJCQkJCTxwYXRoIGlkPSJwYXRoNDkxMDMiIGlua3NjYXBlOmNvbm5lY3Rvci1jdXJ2YXR1cmU9IjAiIHN0eWxlPSJmaWxsOiNFOUFDNDc7IiBkPSJNMC42Miw1My44N0MwLjI4LDUzLjg3LDAsNTQuMTUsMCw1NC41djEuODggICAgICAgIGMwLDAuMzUsMC4yOCwwLjYzLDAuNjIsMC42M3MwLjYyLTAuMjgsMC42Mi0wLjYzVjU0LjVDMS4yNCw1NC4xNSwwLjk2LDUzLjg3LDAuNjIsNTMuODd6Ii8+JiN4YTsJCQkJCTwvZz4mI3hhOwkJCQk8L2c+JiN4YTsJCQk8L2c+JiN4YTsJCTwvZz4mI3hhOwkJPGcgaWQ9Imdyb3VwMzk5OS0xOSIgdHJhbnNmb3JtPSJ0cmFuc2xhdGUoMy44MTMzNCwtMi40NTc4MSkiPiYjeGE7CQkJPHRpdGxlIGlkPSJ0aXRsZTQ5MTA5Ij5KU09OLjM2NjY0PC90aXRsZT4mI3hhOwkJCTxnIGlkPSJzaGFwZTQwMDAtMjAiIHRyYW5zZm9ybT0idHJhbnNsYXRlKDAsLTUuMzA5NzJlLTUpIj4mI3hhOwkJCQk8dGl0bGUgaWQ9InRpdGxlNDkxMTEiPlNoZWV0LjQwMDA8L3RpdGxlPiYjeGE7CQkJCTxwYXRoIGlkPSJwYXRoNDkxMTMiIGlua3NjYXBlOmNvbm5lY3Rvci1jdXJ2YXR1cmU9IjAiIHN0eWxlPSJmaWxsOiNGRkZGRkY7IiBkPSJNMy40OCw1MS4xN3Y0LjQzYzAsMC4yNi0wLjA1LDAuNDktMC4xNSwwLjY3ICAgICAgYy0wLjA5LDAuMTgtMC4yMywwLjMzLTAuMzksMC40NGMtMC4xNiwwLjExLTAuMzUsMC4xOS0wLjU3LDAuMjNjLTAuMjEsMC4wNS0wLjQzLDAuMDctMC42NiwwLjA3Yy0wLjExLDAtMC4yNC0wLjAxLTAuMzktMC4wNCAgICAgIGMtMC4xNi0wLjAyLTAuMzEtMC4wNS0wLjQ4LTAuMWMtMC4xNi0wLjA1LTAuMzEtMC4xMS0wLjQ2LTAuMTdDMC4yMyw1Ni42NCwwLjEsNTYuNTcsMCw1Ni40OWwwLjM5LTAuNjIgICAgICBjMC4wNSwwLjAzLDAuMTMsMC4wNywwLjIyLDAuMTFjMC4xLDAuMDQsMC4yLDAuMDcsMC4zMiwwLjExYzAuMTEsMC4wMywwLjIzLDAuMDYsMC4zNSwwLjA5YzAuMTIsMC4wMiwwLjI0LDAuMDMsMC4zNSwwLjAzICAgICAgYzAuMjcsMCwwLjQ5LTAuMDUsMC42NS0wLjE1YzAuMTYtMC4xMSwwLjI1LTAuMjksMC4yNi0wLjU0di00LjM1TDMuNDgsNTEuMTd6Ii8+JiN4YTsJCQk8L2c+JiN4YTsJCQk8ZyBpZD0ic2hhcGU0MDAxLTIyIiB0cmFuc2Zvcm09InRyYW5zbGF0ZSg0Ljc4NDA1LC0wLjAwNzg1ODM4KSI+JiN4YTsJCQkJPHRpdGxlIGlkPSJ0aXRsZTQ5MTE2Ij5TaGVldC40MDAxPC90aXRsZT4mI3hhOwkJCQk8cGF0aCBpZD0icGF0aDQ5MTE4IiBpbmtzY2FwZTpjb25uZWN0b3ItY3VydmF0dXJlPSIwIiBzdHlsZT0iZmlsbDojRkZGRkZGOyIgZD0iTTMuMyw1NS40MmMwLDAuMjEtMC4wNCwwLjQtMC4xMiwwLjYgICAgICBjLTAuMDksMC4xOS0wLjIxLDAuMzYtMC4zNiwwLjUxYy0wLjE2LDAuMTQtMC4zNSwwLjI2LTAuNTcsMC4zNWMtMC4yMywwLjA5LTAuNDksMC4xMy0wLjc4LDAuMTNjLTAuMTIsMC0wLjI1LTAuMDEtMC4zOC0wLjAyICAgICAgYy0wLjEzLTAuMDEtMC4yNi0wLjA0LTAuNC0wLjA3Yy0wLjEzLTAuMDMtMC4yNi0wLjA3LTAuMzgtMC4xMkMwLjE5LDU2Ljc0LDAuMDksNTYuNjgsMCw1Ni42bDAuMTYtMC42NiAgICAgIGMwLjA3LDAuMDQsMC4xNywwLjA4LDAuMjgsMC4xMmMwLjExLDAuMDMsMC4yMiwwLjA3LDAuMzQsMC4xYzAuMTIsMC4wNCwwLjI0LDAuMDYsMC4zNSwwLjA4YzAuMTIsMC4wMywwLjIzLDAuMDQsMC4zNCwwLjA0ICAgICAgYzAuMzEsMCwwLjU1LTAuMDgsMC43Mi0wLjIyYzAuMTYtMC4xNSwwLjI1LTAuMzcsMC4yNS0wLjY2YzAtMC4xNy0wLjA2LTAuMzItMC4xOC0wLjQ0Yy0wLjEyLTAuMTMtMC4yNy0wLjI0LTAuNDQtMC4zNCAgICAgIGMtMC4xOC0wLjEtMC4zNy0wLjItMC41OC0wLjNjLTAuMi0wLjEtMC40LTAuMjItMC41OC0wLjM2Yy0wLjE4LTAuMTMtMC4zMy0wLjI5LTAuNDQtMC40OGMtMC4xMi0wLjE4LTAuMTgtMC40MS0wLjE4LTAuNjkgICAgICBjMC0wLjI1LDAuMDQtMC40OCwwLjE0LTAuNjdjMC4wOS0wLjIsMC4yMS0wLjM2LDAuMzctMC41czAuMzQtMC4yNCwwLjU1LTAuMzFjMC4yMS0wLjA4LDAuNDMtMC4xMSwwLjY2LTAuMTEgICAgICBjMC4yNCwwLDAuNDgsMC4wMiwwLjcyLDAuMDZjMC4yNCwwLjA1LDAuNDMsMC4xMiwwLjU4LDAuMjJDMy4wMyw1MS41NCwzLDUxLjYyLDIuOTYsNTEuN2MtMC4wNSwwLjA4LTAuMDgsMC4xNS0wLjEyLDAuMjIgICAgICBjLTAuMDQsMC4wNy0wLjA3LDAuMTMtMC4wOSwwLjE3Yy0wLjAzLDAuMDUtMC4wNCwwLjA4LTAuMDUsMC4wOGMtMC4wMy0wLjAxLTAuMDYtMC4wMy0wLjEtMC4wNmMtMC4wNC0wLjAzLTAuMS0wLjA1LTAuMTctMC4wOCAgICAgIGMtMC4wNy0wLjAyLTAuMTctMC4wNC0wLjI5LTAuMDVjLTAuMTEtMC4wMS0wLjI3LTAuMDEtMC40NSwwLjAxYy0wLjEsMC4wMS0wLjIsMC4wNC0wLjI5LDAuMDhjLTAuMSwwLjA1LTAuMTgsMC4xMS0wLjI1LDAuMTkgICAgICBjLTAuMDcsMC4wNy0wLjEzLDAuMTUtMC4xNywwLjI0Yy0wLjA0LDAuMDktMC4wNiwwLjE4LTAuMDYsMC4yNmMwLDAuMiwwLjA2LDAuMzcsMC4xNywwLjVjMC4xMiwwLjEyLDAuMjcsMC4yMywwLjQ0LDAuMzMgICAgICBjMC4xOCwwLjA5LDAuMzcsMC4xOSwwLjU4LDAuMjhjMC4yLDAuMDgsMC4zOSwwLjE5LDAuNTcsMC4zMmMwLjE4LDAuMTMsMC4zMywwLjI5LDAuNDQsMC40OUMzLjI0LDU0Ljg3LDMuMyw1NS4xMiwzLjMsNTUuNDJ6Ii8+JiN4YTsJCQk8L2c+JiN4YTsJCQk8ZyBpZD0ic2hhcGU0MDAyLTI0IiB0cmFuc2Zvcm09InRyYW5zbGF0ZSg4LjkzNjUyKSI+JiN4YTsJCQkJPHRpdGxlIGlkPSJ0aXRsZTQ5MTIxIj5TaGVldC40MDAyPC90aXRsZT4mI3hhOwkJCQk8cGF0aCBpZD0icGF0aDQ5MTIzIiBpbmtzY2FwZTpjb25uZWN0b3ItY3VydmF0dXJlPSIwIiBzdHlsZT0iZmlsbDojRkZGRkZGOyIgZD0iTTQuNzQsNTQuMWMwLDAuNDgtMC4wNiwwLjktMC4xOCwxLjI3ICAgICAgYy0wLjEyLDAuMzYtMC4yOSwwLjY2LTAuNTEsMC45MWMtMC4yMSwwLjI0LTAuNDYsMC40Mi0wLjc0LDAuNTRjLTAuMjksMC4xMy0wLjYsMC4xOS0wLjk0LDAuMTlzLTAuNjUtMC4wNi0wLjk0LTAuMTkgICAgICBjLTAuMjgtMC4xMi0wLjUzLTAuMy0wLjc1LTAuNTRjLTAuMjEtMC4yNS0wLjM4LTAuNTUtMC41LTAuOTFDMC4wNiw1NSwwLDU0LjU4LDAsNTQuMWMwLTAuNDgsMC4wNi0wLjksMC4xOC0xLjI2ICAgICAgczAuMjktMC42NywwLjUtMC45MWMwLjIyLTAuMjQsMC40Ny0wLjQyLDAuNzUtMC41NWMwLjI5LTAuMTMsMC42LTAuMTksMC45NC0wLjE5czAuNjUsMC4wNiwwLjk0LDAuMTkgICAgICBjMC4yOCwwLjEzLDAuNTMsMC4zMSwwLjc0LDAuNTVjMC4yMiwwLjI0LDAuMzksMC41NSwwLjUxLDAuOTFDNC42OCw1My4yLDQuNzQsNTMuNjIsNC43NCw1NC4xeiBNMi4zNSw1Ni4yNSAgICAgIGMwLjE5LDAsMC4zNy0wLjAzLDAuNTQtMC4xMWMwLjE3LTAuMDcsMC4zMy0wLjIsMC40Ni0wLjM2YzAuMTQtMC4xNywwLjI1LTAuNCwwLjMyLTAuNjdjMC4wOC0wLjI4LDAuMTItMC42MSwwLjEzLTEuMDEgICAgICBjLTAuMDEtMC4zOS0wLjA1LTAuNzEtMC4xMi0wLjk4Yy0wLjA4LTAuMjctMC4xOC0wLjUtMC4zMS0wLjY3Yy0wLjEzLTAuMTgtMC4yOC0wLjMtMC40NS0wLjM4Yy0wLjE3LTAuMDgtMC4zNC0wLjExLTAuNTMtMC4xMSAgICAgIGMtMC4xOSwwLTAuMzcsMC4wMy0wLjU0LDAuMWMtMC4xOCwwLjA4LTAuMzMsMC4yLTAuNDcsMC4zN2MtMC4xMywwLjE3LTAuMjQsMC4zOS0wLjMyLDAuNjdjLTAuMDcsMC4yNy0wLjExLDAuNi0wLjEyLDEgICAgICBjMC4wMSwwLjM5LDAuMDUsMC43MiwwLjEyLDAuOTljMC4wOCwwLjI3LDAuMTgsMC40OSwwLjMxLDAuNjdjMC4xMywwLjE3LDAuMjgsMC4yOSwwLjQ1LDAuMzdDMS45OCw1Ni4yMSwyLjE2LDU2LjI1LDIuMzUsNTYuMjUgICAgICB6Ii8+JiN4YTsJCQk8L2c+JiN4YTsJCQk8ZyBpZD0ic2hhcGU0MDAzLTI2IiB0cmFuc2Zvcm09InRyYW5zbGF0ZSgxNC45Nzg3LC0wLjAzODM4OTIpIj4mI3hhOwkJCQk8dGl0bGUgaWQ9InRpdGxlNDkxMjYiPlNoZWV0LjQwMDM8L3RpdGxlPiYjeGE7CQkJCTxwYXRoIGlkPSJwYXRoNDkxMjgiIGlua3NjYXBlOmNvbm5lY3Rvci1jdXJ2YXR1cmU9IjAiIHN0eWxlPSJmaWxsOiNGRkZGRkY7IiBkPSJNNC4xMSw1MS4zMnY1LjY5SDMuMTdsLTIuMjMtMy45MnYzLjkySDB2LTUuNjkgICAgICBoMC45NGwyLjIzLDMuOTJ2LTMuOTJMNC4xMSw1MS4zMnoiLz4mI3hhOwkJCTwvZz4mI3hhOwkJPC9nPiYjeGE7CTwvZz4mI3hhOzwvZz4mI3hhOzwvc3ZnPg==;" vertex="1" parent="1">
          <mxGeometry x="625" y="230" width="42.42" height="55" as="geometry" />
        </mxCell>
        <mxCell id="p6jh_FOEO8K4yXYaCJv4-16" value="LenderConfiguration {&lt;br&gt;OLALenderConfiguration : {}&lt;br&gt;}" style="text;html=1;resizable=0;autosize=1;align=center;verticalAlign=middle;points=[];fillColor=none;strokeColor=none;rounded=0;" vertex="1" parent="1">
          <mxGeometry x="710" y="65" width="170" height="60" as="geometry" />
        </mxCell>
        <mxCell id="p6jh_FOEO8K4yXYaCJv4-17" value="OAOMasterConfiguration&amp;nbsp;{&lt;br&gt;}" style="text;html=1;resizable=0;autosize=1;align=center;verticalAlign=middle;points=[];fillColor=none;strokeColor=none;rounded=0;" vertex="1" parent="1">
          <mxGeometry x="710" y="265" width="170" height="40" as="geometry" />
        </mxCell>
        <mxCell id="p6jh_FOEO8K4yXYaCJv4-19" style="edgeStyle=none;rounded=0;orthogonalLoop=1;jettySize=auto;html=1;startArrow=none;startFill=0;endArrow=blockThin;endFill=1;strokeWidth=2;strokeColor=#00FFFF;" edge="1" parent="1" source="p6jh_FOEO8K4yXYaCJv4-6" target="p6jh_FOEO8K4yXYaCJv4-15">
          <mxGeometry relative="1" as="geometry">
            <mxPoint x="550" y="505" as="targetPoint" />
            <mxPoint x="270" y="776.641791044776" as="sourcePoint" />
          </mxGeometry>
        </mxCell>
        <mxCell id="p6jh_FOEO8K4yXYaCJv4-20" value="When Consumner Loan &lt;br&gt;Product,..etc&lt;br&gt;&amp;nbsp;(&lt;b&gt;on publish&lt;/b&gt;)" style="text;html=1;resizable=0;autosize=1;align=center;verticalAlign=middle;points=[];fillColor=none;strokeColor=none;rounded=0;" vertex="1" parent="1">
          <mxGeometry x="276.28" y="399" width="150" height="60" as="geometry" />
        </mxCell>
        <mxCell id="p6jh_FOEO8K4yXYaCJv4-21" value="When Account Opening &lt;br&gt;Memebership,...etc (&lt;b&gt;on publish&lt;/b&gt;)" style="text;html=1;resizable=0;autosize=1;align=center;verticalAlign=middle;points=[];fillColor=none;strokeColor=none;rounded=0;" vertex="1" parent="1">
          <mxGeometry x="365" y="490" width="200" height="40" as="geometry" />
        </mxCell>
        <mxCell id="p6jh_FOEO8K4yXYaCJv4-22" value="" style="verticalLabelPosition=bottom;html=1;verticalAlign=top;align=center;strokeColor=none;fillColor=#00BEF2;shape=mxgraph.azure.computer;pointerEvents=1;" vertex="1" parent="1">
          <mxGeometry x="700" y="520" width="125" height="120" as="geometry" />
        </mxCell>
        <mxCell id="p6jh_FOEO8K4yXYaCJv4-24" value="DOP App" style="text;html=1;resizable=0;autosize=1;align=center;verticalAlign=middle;points=[];fillColor=none;strokeColor=none;rounded=0;" vertex="1" parent="1">
          <mxGeometry x="730" y="680" width="70" height="30" as="geometry" />
        </mxCell>
        <mxCell id="p6jh_FOEO8K4yXYaCJv4-28" style="edgeStyle=none;rounded=0;orthogonalLoop=1;jettySize=auto;html=1;exitX=0.5;exitY=1;exitDx=0;exitDy=0;startArrow=none;startFill=0;endArrow=open;endFill=0;strokeColor=#00FFFF;strokeWidth=2;" edge="1" parent="1" source="p6jh_FOEO8K4yXYaCJv4-27" target="p6jh_FOEO8K4yXYaCJv4-27">
          <mxGeometry relative="1" as="geometry" />
        </mxCell>
        <mxCell id="p6jh_FOEO8K4yXYaCJv4-29" value="Existing Lender Configuration &lt;br&gt;Collection" style="text;html=1;resizable=0;autosize=1;align=center;verticalAlign=middle;points=[];fillColor=none;strokeColor=none;rounded=0;" vertex="1" parent="1">
          <mxGeometry x="710" y="120" width="180" height="40" as="geometry" />
        </mxCell>
        <mxCell id="p6jh_FOEO8K4yXYaCJv4-30" value="New published&amp;nbsp;&amp;nbsp;&lt;br&gt;OAO Configuration&amp;nbsp;&lt;br&gt;Collection" style="text;html=1;resizable=0;autosize=1;align=center;verticalAlign=middle;points=[];fillColor=none;strokeColor=none;rounded=0;" vertex="1" parent="1">
          <mxGeometry x="735" y="205" width="130" height="60" as="geometry" />
        </mxCell>
      </root>
    </mxGraphModel>
  </diagram>
</mxfile>
